<svg width="172" height="138" viewBox="0 0 172 138" fill="none" xmlns="http://www.w3.org/2000/svg">
<path d="M75.9454 80.5767C73.3139 73.3137 72.735 70.6822 71.3666 59.6826C71.1561 58.1563 70.9456 56.8932 70.8929 56.8932C70.8403 56.8932 69.893 57.3668 68.7351 57.9458C63.5247 60.5773 60.8406 59.1563 50.8409 48.4197C44.8411 41.9463 34.894 32.4729 30.1573 28.6835C30.052 28.6309 32.052 29.2098 34.6308 30.0519C40.6307 31.9466 49.262 33.8939 60.6301 35.8412C70.5771 37.5253 72.8402 38.5253 75.998 42.5778C78.8401 46.2619 79.0506 47.9987 78.8927 68.9981L78.7348 88.208L75.9454 80.5767Z" fill="#2F2F2F"/>
<path d="M92.6816 68.893C92.6816 48.3146 92.8395 46.6831 95.4184 42.8937C96.1026 41.8938 97.8394 40.2622 99.313 39.2096C101.734 37.5255 102.734 37.2097 111.05 35.8413C122.418 33.894 131.049 31.9467 137.101 30.052C139.68 29.2099 141.575 28.7363 141.312 28.9468C133.68 35.3676 127.628 41.1569 120.839 48.4199C112.155 57.6828 110.418 58.9985 106.734 58.9985C105.787 58.9985 104.102 58.5248 102.944 57.9459C101.787 57.367 100.839 56.8933 100.734 56.8933C100.681 56.8933 100.524 57.8933 100.366 59.1564C98.8394 71.0508 98.3657 73.3139 95.7868 80.3137C94.3132 84.3662 92.9974 87.7871 92.8922 87.8924C92.7869 87.9976 92.6816 79.4716 92.6816 68.893Z" fill="#2F2F2F"/>
<path d="M84.8397 40.5777C82.5766 34.3674 78.1557 30.5254 71.4717 28.8412C69.6823 28.3676 63.3667 27.3676 57.4195 26.6308C44.4725 24.9993 35.4728 23.2625 28.5782 21.052L23.4731 19.4205L13.7366 9.73655L4 0L13.2629 4.68407C23.9468 10.0523 30.1571 12.2628 38.6832 13.7364C45.104 14.8417 58.9457 15.8416 67.7876 15.8416C71.8927 15.8416 73.9979 16.1048 76.6294 16.9995C80.3662 18.21 84.2608 21.1573 85.6818 23.894L86.4712 25.5256L87.1554 23.9467C88.1554 21.6836 90.9448 19.2626 94.5236 17.6311C97.4709 16.2627 98.2077 16.1574 109.26 15.7364C135.259 14.789 142.891 13.1049 160.837 4.15777C165.469 1.84205 169.153 0.0526296 168.995 0.15789C168.837 0.26315 164.364 4.52618 158.995 9.63129C150.522 17.5784 148.785 18.9994 146.101 19.9994C138.47 22.8941 127.996 24.9993 112.576 26.8939C107.418 27.5255 101.734 28.4202 99.8393 28.9465C92.9974 30.8412 89.3659 34.1569 87.1028 40.5777L85.9976 43.7355L84.8397 40.5777Z" fill="#2F2F2F"/>
<path d="M32.1231 127H30.5841L28.1271 121.087H19.5951L17.1381 127H15.5991L23.7801 107.398H23.9421L32.1231 127ZM23.8611 110.8L20.1621 119.737H27.5601L23.8611 110.8ZM31.3416 107.56H45.1656V108.91H38.9556V127H37.5516V108.91H31.3416V107.56ZM62.7335 116.605V107.56H64.1375V127H62.7335V117.955H50.2595V127H48.8555V107.56H50.2595V116.605H62.7335ZM70.3447 107.56H82.1167V108.91H71.7487V116.281H81.3877V117.631H71.7487V125.65H82.1167V127H70.3447V107.56ZM101.611 107.56H103.015V127.162H102.853L88.6514 110.908H88.5974V127H87.1934V107.398H87.3554L101.557 123.598H101.611V107.56ZM123.195 127H121.656L119.199 121.087H110.667L108.21 127H106.671L114.852 107.398H115.014L123.195 127ZM114.933 110.8L111.234 119.737H118.632L114.933 110.8ZM149.167 127H147.628L145.171 121.087H136.639L134.182 127H132.643L140.824 107.398H140.986L149.167 127ZM140.905 110.8L137.206 119.737H144.604L140.905 110.8ZM152.399 107.56H153.83V127H152.399V107.56Z" fill="#2F2F2F"/>
</svg>
