<svg width="146" height="58" viewBox="0 0 146 58" fill="none" xmlns="http://www.w3.org/2000/svg">
<path d="M95.5213 0L94.68 0.844345L95.5213 1.68869L96.3626 0.844345L95.5213 0ZM92.7385 2.63046L91.7677 3.6047L92.7385 4.61142L93.7416 3.6047L92.7385 2.63046ZM99.3395 3.83203L98.4982 4.67637L99.3395 5.52072L100.181 4.67637L99.3395 3.83203ZM89.988 5.26092L88.8555 6.39754L89.988 7.53415L91.0882 6.39754L89.988 5.26092ZM96.5567 6.46249L95.5536 7.46921L96.5567 8.47592L97.5598 7.46921L96.5567 6.46249ZM103.158 7.66405L102.316 8.5084L103.158 9.35274L103.999 8.5084L103.158 7.66405ZM87.2052 7.89138L85.9433 9.15789L87.2052 10.4244L88.4672 9.15789L87.2052 7.89138ZM93.8063 9.06047L92.6414 10.2296L93.8063 11.3987L94.9712 10.2296L93.8063 9.06047ZM100.375 10.2296L99.3395 11.3012L100.375 12.3404L101.443 11.3012L100.375 10.2296ZM84.4548 10.5218L83.031 11.9507L84.4548 13.3471L85.8785 11.9507L84.4548 10.5218ZM106.976 11.4961L106.135 12.3729L106.976 13.2172L107.817 12.3729L106.976 11.4961ZM91.0235 11.6909L89.7292 12.9899L91.0235 14.3214L92.3502 12.9899L91.0235 11.6909ZM97.6246 12.7951L96.3626 14.0616L97.6246 15.3281L98.8865 14.0616L97.6246 12.7951ZM81.7043 13.1523L80.1511 14.7111L81.7043 16.2699L83.2252 14.7111L81.7043 13.1523ZM104.226 14.0616L103.158 15.1333L104.226 16.1725L105.261 15.1333L104.226 14.0616ZM88.273 14.2889L86.8169 15.7828L88.273 17.2441L89.7292 15.7828L88.273 14.2889ZM110.794 15.3281L109.953 16.2049L110.794 17.0493L111.636 16.2049L110.794 15.3281ZM94.8741 15.3606L93.3856 16.8544L94.8741 18.3158L96.3302 16.8544L94.8741 15.3606ZM78.9215 15.7828L77.2389 17.5039L78.9215 19.1926L80.6042 17.5039L78.9215 15.7828ZM101.443 16.6271L100.181 17.8936L101.443 19.1601L102.705 17.8936L101.443 16.6271ZM85.5226 16.9194L83.8723 18.5431L85.5226 20.1993L87.1405 18.5431L85.5226 16.9194ZM0 17.6338V36.2419H9.93395C14.1633 36.2419 19.1237 35.3017 19.1237 30.8511C19.1237 28.5847 17.4786 27.2666 14.3347 26.7592V26.6943C16.9733 26.0031 18.5089 24.6865 18.5089 22.3427C18.5089 19.1437 15.2348 17.6338 10.84 17.6338H0ZM123.155 17.6338V20.3617H129.238V17.6338H123.155ZM62.0629 17.6663L56.109 18.8029V21.6932H52.5173V25.0381H55.9796V31.1433C55.9796 34.6082 57.2975 36.5666 62.7425 36.5666C64.2604 36.5666 65.4179 36.4198 66.5607 36.3068L66.3666 33.0269C65.7554 33.1155 65.1311 33.2217 64.5222 33.2217C62.5961 33.2217 62.0629 32.32 62.0629 30.5588V25.0381H66.3342V21.6932H62.0629V17.6663ZM92.0913 17.9261L90.441 19.6148L92.0913 21.3035L93.7739 19.6148L92.0913 17.9261ZM108.044 17.9261L106.976 18.9653L108.044 20.037L109.079 18.9653L108.044 17.9261ZM76.1711 18.7055L74.6179 20.2643L76.1711 21.8231L77.7243 20.2643L76.1711 18.7055ZM98.6924 19.1926L97.2363 20.6865L98.6924 22.1478L100.148 20.6865L98.6924 19.1926ZM114.613 19.1926L113.771 20.037L114.613 20.8813L115.454 20.037L114.613 19.1926ZM82.7398 19.5498L80.9601 21.3359L82.7398 23.1221L84.5195 21.3359L82.7398 19.5498ZM89.3409 20.4916L88.3378 21.4983C83.7157 22.1009 80.2806 24.7406 80.2806 28.9675C80.2806 29.2334 80.2843 29.4921 80.3129 29.7469L79.3746 30.7212L81.0572 32.4099L82.7074 30.7212V31.5655L81.4455 32.832C81.911 33.4944 82.5111 34.0614 83.1928 34.5532L84.8754 36.2419L86.5257 34.5532V35.3975L86.008 35.9171C87.0912 36.2605 88.2877 36.4743 89.5674 36.5342V35.6249L91.4441 37.5084L93.3209 35.6249V36.3068C97.5304 35.5093 100.634 32.9131 100.634 28.9675C100.634 28.9409 100.634 28.9292 100.634 28.9026L99.7278 29.8119L98.0776 28.1232V27.2788L99.7278 28.9675L101.41 27.2788L99.7602 25.5901C99.1667 24.5932 98.2886 23.7822 97.2363 23.1221L95.9096 21.7906L95.4566 22.2452C94.6005 21.9196 93.6835 21.6726 92.7061 21.5308L92.0913 22.1478L91.3471 21.4009C91.0426 21.3854 90.7455 21.3684 90.441 21.3684C90.3572 21.3684 90.2638 21.364 90.1822 21.3684L89.3409 20.4916ZM105.261 20.4916L104.064 21.6932H102.09V23.4468L101.022 24.5185L102.511 25.9798L103.967 24.5185V25.3628L102.511 26.8242L102.09 26.4345V31.1433L103.578 32.6047L105.035 31.1433V31.9877L103.578 33.449L102.09 31.9877V33.5789L100.796 32.28L99.1777 33.9037L100.796 35.5274L102.414 33.9037V34.748L102.09 35.0728V36.2419H104.549L103.061 37.7357L104.614 39.2945L106.167 37.7357L104.679 36.2419H106.394L105.973 35.8197V34.9754L107.397 36.3718L108.788 34.9754L108.173 34.3583V30.1041C108.173 28.9056 108.383 27.9619 108.756 27.2464L107.914 26.4345V25.5901L109.079 26.7268L110.244 25.5901V25.8499C110.738 25.6461 111.306 25.5577 111.959 25.5577C113.618 25.5577 114.774 26.4544 114.774 29.1949V36.2419H120.858V27.1489C120.858 24.136 118.93 21.3359 114.127 21.3359C111.352 21.3359 108.929 22.2604 107.72 24.3561H107.623V21.6932H106.458L105.261 20.4916ZM6.08333 21.0762H8.18661C10.673 21.0762 12.3932 21.2811 12.3932 23.0246C12.3932 24.6286 10.6745 25.0706 8.1219 25.0706H6.08333V21.0762ZM78.6627 21.3035C78.2236 21.3035 77.8147 21.3064 77.4331 21.3684L76.1711 22.6674L75.5563 22.0504C75.1945 22.2609 74.8812 22.5093 74.5855 22.7973L73.453 21.6932H67.9198V27.4087L66.7549 28.5778L67.8874 29.7144L68.9876 28.5778V29.4222L67.9198 30.4938V35.2027L68.9229 36.2094L69.926 35.2027V36.047L69.7318 36.2419H73.8413V31.2083L73.1618 30.4938V29.6495L74.4561 30.981L75.7828 29.6495L74.4561 28.3505L73.9707 28.8052C74.3208 26.9914 75.3495 25.7294 77.2066 25.3953C77.5498 25.3335 77.9375 25.292 78.3391 25.2979C78.4693 25.3001 78.5972 25.2912 78.7274 25.2979L78.3715 24.9407V24.0963L79.9894 25.7525L81.6073 24.0963L80.5071 22.9922L80.6365 21.4658C80.1269 21.3684 79.3731 21.3035 78.6627 21.3035ZM77.2066 25.3953L75.7504 26.8891L77.2066 28.3505L78.695 26.8891L77.2066 25.3953ZM45.5926 21.3359C42.0781 21.3359 38.0855 22.7254 38.0855 26.0773C38.0855 31.3321 46.7252 29.5914 46.7252 32.0526C46.7252 33.0584 45.5147 33.2217 44.266 33.2217C42.0685 33.2217 39.955 32.7201 38.5386 32.215L38.215 35.8847C40.0064 36.3565 41.8538 36.5666 44.5895 36.5666C48.5806 36.5666 52.8085 35.6137 52.8085 31.7279C52.8085 26.1939 43.7482 27.982 43.7482 25.72C43.7482 24.9092 45.2463 24.7133 46.5634 24.7133C48.0857 24.7133 50.0059 25.0429 51.2877 25.6876L51.773 22.1803C49.8161 21.5422 47.6908 21.3359 45.5926 21.3359ZM141.017 21.3359C135.206 21.3359 130.792 24.1336 130.792 28.9675C130.792 33.7727 135.206 36.5666 141.017 36.5666C142.638 36.5666 144.48 36.3661 146 35.9496L145.871 32.1825C144.856 32.6323 143.47 32.897 142.085 32.897C139.446 32.897 137.069 31.3822 137.069 29.065C137.069 26.5527 139.094 25.0381 141.729 25.0381C143.183 25.0381 144.306 25.2917 145.418 25.8499L145.871 22.1478C144.483 21.5873 142.846 21.3359 141.017 21.3359ZM19.1237 21.6932L25.8865 31.7928C25.5666 32.7565 24.6576 33.2217 23.1684 33.2217C22.3213 33.2217 21.5858 33.1583 20.7739 32.9944L20.3533 36.3718C21.6042 36.5313 22.8552 36.5991 24.1392 36.5991C29.7165 36.5991 31.0557 34.035 32.7788 31.4031L39.2181 21.6932H33.1348L29.4783 28.2856H29.4136L25.6924 21.6932H19.1237ZM103.999 21.7581L105.261 22.9922L106.523 21.7581V22.6025L105.261 23.8365L103.999 22.6025V21.7581ZM123.155 21.7906V36.2419H129.238V21.7906H123.155ZM87.4641 22.3751L89.3409 24.2587L91.2176 22.3751V23.2195L89.4056 25.0381C89.7144 24.9694 90.0726 24.9407 90.441 24.9407C92.398 24.9407 93.5195 25.9083 94.0004 27.2464L95.0359 26.2396V27.084L94.1946 27.9283C94.2608 28.2717 94.2917 28.6064 94.2917 28.9675C94.2917 31.0699 93.1746 32.9944 90.441 32.9944C90.0086 32.9944 89.6247 32.9487 89.2761 32.8645L87.6259 34.5207L85.7491 32.6372V31.7928L87.6259 33.6764L88.629 32.6372C87.1839 31.9903 86.5581 30.5316 86.5581 28.9675C86.5581 28.6286 86.5956 28.3167 86.6551 27.9933L84.6813 26.0123V25.168L86.5581 27.0515C86.5581 27.0515 87.1743 26.4289 87.6906 25.9149C87.7325 25.8706 87.795 25.8359 87.8524 25.785C88.2385 25.4593 88.6981 25.2123 89.2761 25.0706L87.4641 23.2195V22.3751ZM110.859 22.7973L111.862 23.804L112.865 22.7973V23.6417L111.862 24.6484L110.859 23.6417V22.7973ZM71.9969 23.0246L73.3883 24.4535L74.8121 23.0246V23.869L73.3883 25.2979L71.9969 23.869V23.0246ZM94.2593 23.4468L95.9096 25.1355L97.5922 23.4468V24.2912L95.9096 25.9798L94.2593 24.2912V23.4468ZM117.59 23.869L118.431 24.7133L119.272 23.869V24.7133L118.431 25.5577L117.59 24.7133V23.869ZM69.3759 25.8175L70.6379 27.084L71.8998 25.8175V26.6618L70.6379 27.9283L69.3759 26.6618V25.8175ZM114.677 26.6293L115.68 27.6361L116.651 26.6293V27.4737L115.68 28.4804L114.677 27.4737V26.6293ZM81.9308 27.9283L83.8076 29.8119L85.6844 27.9283V28.7727L83.8076 30.6562L81.9308 28.7727V27.9283ZM6.08333 28.2856H8.38076C10.7458 28.2856 13.008 28.4941 13.008 30.5588C13.008 32.4928 10.829 32.7996 8.31605 32.7996H6.08333V28.2856ZM112.898 28.2856L111.797 29.4222L112.898 30.5588L114.03 29.4222L112.898 28.2856ZM105.002 28.3505L106.329 29.682L107.623 28.3505V29.1949L106.329 30.5263L105.002 29.1949V28.3505ZM95.1006 30.0717L96.9774 31.9552L98.8542 30.0717V30.916L96.9774 32.7996L95.1006 30.916V30.0717ZM65.1046 30.3639L64.1339 31.3707L65.1046 32.3449L66.1077 31.3707L65.1046 30.3639ZM110.147 30.916L108.885 32.1825L110.147 33.449L111.409 32.1825L110.147 30.916ZM78.2744 32.0202L76.8183 33.4815L78.2744 34.9754L79.7629 33.4815L78.2744 32.0202ZM70.5408 32.4099L71.7057 33.5789L72.8382 32.4099V33.2867L71.7057 34.4233L70.5408 33.2867V32.4099ZM92.3502 32.832L94.2269 34.7156L96.1037 32.832V33.6764L94.2269 35.5599L92.3502 33.6764V32.832ZM61.5128 34.131L62.3542 34.9754L63.1955 34.131V34.9754L62.3542 35.8197L61.5128 34.9754V34.131ZM98.0452 34.8779L96.2655 36.6641L98.0452 38.4826L99.8249 36.6641L98.0452 34.8779ZM75.5239 35.0078L74.262 36.2744L75.5239 37.5409L76.7859 36.2744L75.5239 35.0078ZM82.0926 35.8522L80.6365 37.3136L82.0926 38.8074L83.5488 37.3136L82.0926 35.8522ZM88.6937 36.729L87.0111 38.3852L88.6937 40.0739L90.344 38.3852L88.6937 36.729ZM66.1724 37.1187L65.3311 37.963L66.1724 38.8074L67.0137 37.963L66.1724 37.1187ZM95.2624 37.8331L93.6445 39.4569L95.2624 41.0806L96.9127 39.4569L95.2624 37.8331ZM72.7411 37.9955L71.7057 39.0347L72.7411 40.1064L73.809 39.0347L72.7411 37.9955ZM101.863 38.8074L100.181 40.4961L101.863 42.2172L103.546 40.4961L101.863 38.8074ZM79.3422 38.8399L78.0802 40.1064L79.3422 41.3729L80.6042 40.1064L79.3422 38.8399ZM85.9109 39.6842L84.4548 41.1781L85.9109 42.6394L87.3994 41.1781L85.9109 39.6842ZM92.512 40.7559L91.0235 42.2172L92.512 43.7111L93.9681 42.2172L92.512 40.7559ZM69.9907 40.9507L69.1494 41.8275L69.9907 42.6719L70.832 41.8275L69.9907 40.9507ZM99.0807 41.7301L97.5275 43.2889L99.0807 44.8477L100.634 43.2889L99.0807 41.7301ZM76.5918 41.8275L75.5239 42.8667L76.5918 43.9384L77.6272 42.8667L76.5918 41.8275ZM83.1605 42.6719L81.8985 43.9384L83.1605 45.2049L84.4224 43.9384L83.1605 42.6719ZM89.7292 43.6786L88.4348 45.0101L89.7292 46.3091L91.0558 45.0101L89.7292 43.6786ZM96.3302 44.6529L94.9065 46.0493L96.3302 47.4782L97.7216 46.0493L96.3302 44.6529ZM73.809 44.8152L72.9676 45.6596L73.809 46.5039L74.6503 45.6596L73.809 44.8152ZM80.3777 45.6596L79.3422 46.6988L80.3777 47.7704L81.4455 46.6988L80.3777 45.6596ZM86.9787 46.6013L85.8138 47.7704L86.9787 48.9395L88.1436 47.7704L86.9787 46.6013ZM93.5798 47.5756L92.3178 48.8421L93.5798 50.1086L94.8418 48.8421L93.5798 47.5756ZM77.6272 48.6473L76.7859 49.4916L77.6272 50.3359L78.4685 49.4916L77.6272 48.6473ZM84.2283 49.5566L83.2252 50.5633L84.2283 51.57L85.2314 50.5633L84.2283 49.5566ZM90.797 50.4658L89.6644 51.6025L90.797 52.7391L91.9295 51.6025L90.797 50.4658ZM81.4455 52.4793L80.6042 53.3236L81.4455 54.168L82.2868 53.3236L81.4455 52.4793ZM88.0465 53.3886L87.0434 54.3953L88.0465 55.3695L89.0173 54.3953L88.0465 53.3886ZM85.2637 56.3113L84.4224 57.1557L85.2637 58L86.1374 57.1557L85.2637 56.3113Z" fill="#808080"/>
</svg>
