<?xml version="1.0" encoding="UTF-8"?> <svg xmlns="http://www.w3.org/2000/svg" width="200" height="70" viewBox="0 0 200 70" fill="none"><g clip-path="url(#clip0_1532_1985)"><path d="M66.5168 43.0604C61.9118 43.0604 58.8159 40.0364 58.8159 35.536C58.8159 31.2156 61.8966 28.0804 66.141 28.0804C67.8304 28.0574 69.4833 28.5662 70.8606 29.533L73.7467 26.9512C71.6769 25.3429 69.12 24.4684 66.4868 24.468C66.3554 24.468 66.2246 24.468 66.0931 24.4746C59.561 24.4746 54.8235 29.1264 54.8235 35.5355C54.8235 42.2967 59.3562 46.6657 66.3743 46.6657C69.3831 46.6657 72.0345 45.8521 73.8609 44.3728L71.3652 41.6742C69.9297 42.6133 68.2382 43.097 66.5168 43.0604Z" fill="#808080"></path><path d="M82.7906 43.089C81.4883 43.089 80.5864 42.3216 80.2507 40.9284C80.1062 40.2829 80.0406 39.6228 80.0552 38.9619V24.8196H76.2431V38.8381C76.2014 40.3096 76.4158 41.7773 76.8772 43.177C77.2541 44.2029 77.9535 45.0828 78.8729 45.6877C79.7923 46.2927 80.8836 46.5911 81.9869 46.5393C82.3344 46.5384 82.6813 46.5122 83.0249 46.4608L83.0085 43.0895L82.7906 43.089Z" fill="#808080"></path><path d="M89.2453 30.6895H85.3691V46.2864H89.2453V30.6895Z" fill="#808080"></path><path d="M100.705 43.3348H100.679C97.674 43.3348 95.7306 41.4403 95.7306 38.5088C95.7306 35.7322 97.7041 33.717 100.423 33.717C101.612 33.6813 102.775 34.0749 103.692 34.824L106.347 32.4158C104.825 31.048 102.841 30.2894 100.783 30.2878C100.651 30.2878 100.519 30.2909 100.387 30.2969C95.4734 30.2969 91.9109 33.7487 91.9109 38.5043C91.9109 43.5109 95.3109 46.7458 100.573 46.7458C102.982 46.7458 105.055 46.0469 106.422 44.7759L104.092 42.2313C103.111 42.9466 101.924 43.3333 100.705 43.3348Z" fill="#808080"></path><path d="M118.448 30.6891L112.373 37.4987V24.8186H108.532V46.2857H112.373V41.4738L114.719 39.3287L116.952 43.0171C118.48 45.5592 119.973 46.5041 122.459 46.5041C122.662 46.5029 122.865 46.4883 123.066 46.4603L123.061 43.1061C122.95 43.1095 122.839 43.1073 122.73 43.0996C121.65 43.0996 120.896 42.1793 119.714 40.2461L117.422 36.4722L122.93 30.6857L118.448 30.6891Z" fill="#808080"></path><path opacity="0.7" d="M88.6943 25.3888C88.3617 25.0603 87.9206 24.8607 87.4516 24.8265C86.9826 24.7924 86.5168 24.9258 86.139 25.2026C85.7613 25.4794 85.4968 25.8811 85.3937 26.3344C85.2907 26.7878 85.356 27.2626 85.5777 27.6724C85.7994 28.0822 86.1626 28.3997 86.6014 28.5669C87.0402 28.7341 87.5252 28.74 87.968 28.5835C88.4108 28.427 88.782 28.1185 89.0138 27.7142C89.2456 27.3099 89.3227 26.8368 89.231 26.3811C89.1558 26.005 88.9689 25.6596 88.6943 25.3888Z" fill="#808080"></path><path d="M139.399 24.8196H135.43V46.2857H139.399V24.8196Z" fill="#808080"></path><path d="M151.608 30.4866C149.971 30.5099 148.398 31.1106 147.17 32.1803L146.95 32.372V30.6878H143.267V46.2864H147.143V37.4748C147.143 36.5487 147.514 35.6608 148.177 35.006C148.84 34.3512 149.739 33.9834 150.676 33.9834C151.613 33.9834 152.512 34.3512 153.175 35.006C153.838 35.6608 154.21 36.5487 154.21 37.4748V46.2864H158.086V37.2618C158.086 33.0201 155.664 30.4866 151.608 30.4866Z" fill="#808080"></path><path d="M168.441 36.9281C166.651 36.4632 165.108 36.0616 165.108 34.8103C165.108 33.8884 166.008 33.3158 167.459 33.3158C168.175 33.3176 168.882 33.4708 169.533 33.7651C170.14 34.0454 170.683 34.4454 171.129 34.9406L173.681 32.7014C172.274 31.0485 170.182 30.2107 167.458 30.2107C163.774 30.2107 161.395 32.0407 161.395 34.8732C161.395 38.5127 164.512 39.3988 167.016 40.1107C168.718 40.5948 170.188 41.0124 170.188 42.1979C170.188 42.5341 170.007 43.6294 167.68 43.6294C166.811 43.6387 165.949 43.4717 165.148 43.1388C164.388 42.8228 163.7 42.361 163.121 41.7803L160.615 44.1387C162.245 45.8279 164.791 46.7935 167.615 46.7935C170.702 46.7935 174 45.4782 174 41.7858C174 38.3738 170.917 37.5722 168.441 36.9281Z" fill="#808080"></path><path d="M124.7 38.0594H131.828V34.2644H124.7V38.0594Z" fill="#808080"></path><path opacity="0.7" d="M35.8419 47.3065L35.8322 47.304C33.7226 46.8461 31.7852 45.8126 30.2404 44.3211C28.6956 42.8296 27.6052 40.9398 27.0932 38.8666C26.5812 36.7934 26.6681 34.6198 27.3441 32.593C28.02 30.5661 29.2579 28.7672 30.917 27.4008C31.1419 27.1474 31.2938 26.8389 31.3568 26.5076C31.4197 26.1764 31.3914 25.8345 31.2749 25.5177C31.1584 25.201 30.9578 24.9209 30.6943 24.7069C30.4307 24.4929 30.1138 24.3528 29.7767 24.3012C29.6786 24.2863 29.5795 24.2787 29.4803 24.2786C29.108 24.2812 28.7445 24.3908 28.4342 24.5941C26.2506 26.4196 24.6268 28.8116 23.7459 31.5003C22.865 34.1891 22.7622 37.0675 23.4489 39.8109C24.1357 42.5544 25.5847 45.0536 27.6326 47.0268C29.6804 48.9998 32.2456 50.3683 35.0387 50.9777C35.5279 51.0733 36.0354 50.9753 36.4521 50.7047C36.869 50.4343 37.1615 50.0129 37.267 49.5314C37.3724 49.0499 37.2821 48.5467 37.0158 48.1303C36.7495 47.7137 36.3283 47.4173 35.8429 47.3045L35.8419 47.3065Z" fill="#808080"></path><path opacity="0.7" d="M36.9927 24.2088C37.3501 24.5598 37.8339 24.7564 38.3378 24.7553H45.0402C45.0869 24.7553 45.1262 24.7593 45.1654 24.7593C45.6122 24.7592 46.0447 24.6037 46.3871 24.32C46.7295 24.0364 46.9598 23.6427 47.0379 23.208C47.1158 22.7733 47.0365 22.3254 46.8137 21.9428C46.591 21.5601 46.2388 21.2672 45.8193 21.1153C45.5823 21.0277 45.3295 20.9893 45.0767 21.0026H38.3383C37.9619 21.0025 37.5938 21.1128 37.2808 21.3194C36.9677 21.526 36.7238 21.8197 36.5798 22.1634C36.436 22.5063 36.3985 22.8838 36.472 23.2478C36.5455 23.6119 36.7267 23.9466 36.9927 24.2088Z" fill="#808080"></path><path opacity="0.7" d="M48.884 27.6233H38.338C36.6397 27.6222 34.9789 28.1166 33.564 29.0447C32.1491 29.9727 31.0431 31.2929 30.3849 32.8396C29.7266 34.3864 29.5454 36.0908 29.864 37.739C30.1826 39.3871 30.9868 40.9055 32.1756 42.1038L32.1797 42.1083C32.3512 42.2994 32.5604 42.4541 32.7945 42.5626C33.0286 42.6712 33.2825 42.7315 33.541 42.7397H33.5711C33.8164 42.7421 34.0601 42.6992 34.2896 42.6135C34.5304 42.521 34.7496 42.3812 34.934 42.2026C35.1185 42.024 35.2643 41.8103 35.3627 41.5744C35.4604 41.3385 35.5086 41.0856 35.5044 40.8307C35.5002 40.5759 35.4437 40.3247 35.3383 40.0921C35.236 39.8646 35.0881 39.66 34.9033 39.4908C34.2437 38.819 33.7981 37.9708 33.622 37.0511C33.4458 36.1315 33.5467 35.1811 33.9122 34.3176C34.2778 33.4542 34.8918 32.7157 35.6781 32.1938C36.4645 31.672 37.3888 31.3898 38.336 31.382H48.884C49.3884 31.3802 49.8717 31.1823 50.2294 30.8311C50.4954 30.5682 50.6764 30.2333 50.7496 29.8688C50.823 29.5042 50.7852 29.1265 50.6412 28.7831C50.4971 28.4398 50.2534 28.1464 49.9406 27.9399C49.6278 27.7335 49.2601 27.6233 48.884 27.6233Z" fill="#808080"></path><path d="M48.8839 40.9236H38.3385C38.0888 40.9235 37.8415 40.972 37.6108 41.0666C37.1444 41.2579 36.7739 41.6239 36.58 42.0844C36.4607 42.37 36.4145 42.6802 36.4455 42.9877C36.4764 43.2951 36.5836 43.5902 36.7574 43.847C36.9313 44.1037 37.1665 44.3142 37.4422 44.4599C37.718 44.6055 38.0258 44.6818 38.3385 44.6818H48.8839C49.388 44.6805 49.8711 44.4827 50.2285 44.1314C50.4947 43.8687 50.6761 43.5338 50.7496 43.1692C50.8232 42.8046 50.7856 42.4267 50.6417 42.0832C50.4977 41.7398 50.2538 41.4461 49.9409 41.2397C49.628 41.0331 49.2602 40.9235 48.8839 40.9236Z" fill="#808080" fill-opacity="0.7"></path><path opacity="0.7" d="M44.5115 48.0849C44.3234 47.9089 44.1009 47.7727 43.8575 47.6848C43.6201 47.598 43.3672 47.5602 43.1145 47.5737H41.2189C40.9065 47.5734 40.5988 47.6493 40.3232 47.7946C40.0476 47.9398 39.8125 48.1499 39.6385 48.4063C39.4647 48.6628 39.3574 48.9576 39.3263 49.2647C39.2952 49.5718 39.3412 49.8817 39.4603 50.167C39.5549 50.3953 39.695 50.6023 39.8724 50.7759C40.0487 50.9513 40.2587 51.0903 40.4901 51.1844C40.7222 51.2759 40.9696 51.3236 41.2194 51.3254H43.0803C43.1261 51.3254 43.1644 51.3289 43.2026 51.3289C43.5835 51.3295 43.9559 51.217 44.2713 51.006C44.5868 50.795 44.8309 50.4953 44.9719 50.1456C45.113 49.796 45.1444 49.4126 45.0624 49.0451C44.9803 48.6776 44.7884 48.3434 44.5115 48.0849Z" fill="#808080"></path><path opacity="0.7" d="M36.9931 37.4916C37.1696 37.6659 37.3792 37.8038 37.6099 37.8976C37.8407 37.9909 38.0878 38.0385 38.3372 38.0379H44.4787C44.5246 38.0379 44.5627 38.0415 44.601 38.0415C45.0479 38.0417 45.4807 37.8865 45.8233 37.603C46.166 37.3194 46.3967 36.9257 46.4749 36.491C46.5531 36.0562 46.4738 35.6081 46.251 35.2253C46.0282 34.8425 45.6761 34.5494 45.2565 34.3975C45.0194 34.3102 44.7665 34.2723 44.5139 34.2863H38.3382C38.0885 34.286 37.8411 34.3345 37.6105 34.4292C37.1444 34.621 36.774 34.9868 36.5797 35.4471C36.4358 35.7902 36.3984 36.1678 36.4719 36.5319C36.5455 36.8961 36.7269 37.2294 36.9931 37.4916Z" fill="#808080"></path></g><defs><clipPath id="clip0_1532_1985"><rect width="151" height="31" fill="white" transform="translate(23 21)"></rect></clipPath></defs></svg> 