<svg width="222" height="51" viewBox="0 0 222 51" fill="none" xmlns="http://www.w3.org/2000/svg">
<g clip-path="url(#clip0_649_1445)">
<path fill-rule="evenodd" clip-rule="evenodd" d="M0 50.795H50.792V0H0V50.795ZM32.554 3.88C41.532 6.822 48.019 15.333 48.044 25.388C48.068 35.28 41.711 43.771 32.554 46.907V3.88ZM25.387 2.73001C27.009 2.73001 28.736 2.94599 30.176 3.23199C30.176 14.74 19.047 24.21 7.56 24.21L2.75699 24.203C3.54399 12.406 13.305 2.73001 25.387 2.73001ZM7.564 26.606C19.048 26.606 30.174 36.066 30.174 47.564C28.736 47.858 26.924 48.075 25.387 48.075C13.301 48.059 3.20999 38.352 2.75299 26.607L7.564 26.606Z" fill="#808080"/>
<path fill-rule="evenodd" clip-rule="evenodd" d="M67.7928 29.861V26.66H78.3608V22.577H67.7908V16.634H79.0348V12.563H63.4648V21.313V29.676C63.4648 34.001 65.3078 36.96 69.6318 37.569C69.7188 37.59 69.8038 37.606 69.8828 37.607H69.9618C70.4048 37.657 70.8578 37.69 71.3308 37.69H79.3348V33.623H71.3658C69.9918 33.623 67.7928 32.945 67.7928 29.861Z" fill="#808080"/>
<path fill-rule="evenodd" clip-rule="evenodd" d="M82.4102 24.4371V37.6961H86.7382V24.3501V12.5571H82.4102V24.4371Z" fill="#808080"/>
<path fill-rule="evenodd" clip-rule="evenodd" d="M99.148 18.9429C93.677 18.9429 89.584 22.7109 89.584 28.5799V28.7259C89.584 34.4499 93.533 38.1449 99.257 38.1449C102.01 38.1449 104.582 37.3839 106.937 34.8839L104.329 32.3479C102.952 33.7249 101.612 34.4499 99.402 34.4499C96.178 34.4499 94.04 32.5659 93.895 29.6679H108.097C108.17 28.9429 108.17 28.1469 108.17 28.1469C108.169 23.0379 104.582 18.9429 99.148 18.9429ZM94.003 26.6239C94.184 24.4139 96.431 22.6389 99.148 22.6389C101.684 22.6389 103.749 24.4509 103.749 26.6239H94.003Z" fill="#808080"/>
<path fill-rule="evenodd" clip-rule="evenodd" d="M120.33 22.8201C122.286 22.8201 123.735 23.5451 124.967 24.8131L127.649 22.0231C125.547 19.7761 123.047 18.8711 120.331 18.8711C114.824 18.8711 110.404 22.9651 110.404 28.5441C110.404 34.1231 114.824 38.2181 120.331 38.2181C123.048 38.2181 125.548 37.3121 127.649 35.0661L124.967 32.2761C123.736 33.5451 122.286 34.2681 120.33 34.2681C117.142 34.2681 114.714 31.8411 114.714 28.5441C114.714 25.2481 117.142 22.8201 120.33 22.8201Z" fill="#808080"/>
<path fill-rule="evenodd" clip-rule="evenodd" d="M134.67 29.8671H134.665V23.4491H138.602V19.5171H134.671V12.5581H130.342V21.5751V30.1241L130.355 30.1231C130.478 34.2071 132.334 36.9891 136.51 37.5761C136.597 37.5971 136.682 37.6131 136.76 37.6151H136.84C137.282 37.6641 137.736 37.6971 138.209 37.6971H138.666L138.683 33.6311H138.245C136.869 33.6301 134.67 32.9511 134.67 29.8671Z" fill="#808080"/>
<path fill-rule="evenodd" clip-rule="evenodd" d="M146.536 22.2222V19.5192H142.243V28.4272V37.6972H146.536V28.1382C146.536 25.1452 148.447 23.2692 151.439 23.2692C152.125 23.2692 152.739 23.3412 153.244 23.4502V19.2662C153.063 19.2302 152.415 19.1592 151.946 19.1592C149.348 19.1582 147.401 20.3482 146.536 22.2222Z" fill="#808080"/>
<path fill-rule="evenodd" clip-rule="evenodd" d="M163.826 18.978C158.306 18.978 153.906 23.161 153.906 28.608C153.906 34.052 158.306 38.239 163.826 38.239C169.307 38.239 173.744 34.052 173.744 28.608C173.744 23.16 169.308 18.978 163.826 18.978ZM163.826 34.307C160.616 34.307 158.2 31.818 158.2 28.608C158.2 25.397 160.616 22.909 163.826 22.909C167.001 22.909 169.452 25.397 169.452 28.608C169.452 31.817 167.001 34.307 163.826 34.307Z" fill="#808080"/>
<path fill-rule="evenodd" clip-rule="evenodd" d="M176.406 24.0031V37.6961H180.737V24.1771V12.5571H176.406V24.0031Z" fill="#808080"/>
<path fill-rule="evenodd" clip-rule="evenodd" d="M196.346 30.0851C196.346 32.9701 194.652 34.198 192.377 34.198C190.106 34.198 188.41 32.969 188.41 30.123V19.519H184.046V24.784V30.484C184.046 35.678 187.833 38.167 192.342 38.167C196.887 38.167 200.708 35.643 200.708 30.376V24.785V19.5201H196.346V30.0851Z" fill="#808080"/>
<path fill-rule="evenodd" clip-rule="evenodd" d="M217.085 31.884L214.356 28.066L217.736 23.462L220.63 19.519H215.906L211.974 24.9641L208.006 19.519H203.318L206.006 23.196L209.594 28.103L205.834 33.338L202.704 37.696H207.358L211.974 31.276L216.59 37.696H221.243L217.085 31.884Z" fill="#808080"/>
</g>
<defs>
<clipPath id="clip0_649_1445">
<rect width="222" height="51" fill="white"/>
</clipPath>
</defs>
</svg>
