<svg width="303" height="209" viewBox="0 0 303 209" fill="none" xmlns="http://www.w3.org/2000/svg">
<g clip-path="url(#clip0_646_1232)">
<path d="M149.4 0.0701433C161.6 -0.429857 173.2 1.77014 182.6 4.67014C192.3 7.67014 200.7 11.6701 208.2 16.9701C215.6 22.1701 222 28.1701 227 35.9701C231.9 43.5701 236.1 52.8701 236.5 64.3701C236.924 74.9214 234.209 85.3613 228.7 94.3701C224 102.37 217.7 108.87 210.7 114.27C203.5 119.77 195.2 124.07 185.9 127.27C176.4 130.57 165.7 132.57 153.7 132.97C141.3 133.27 130.2 131.37 120.5 128.37C110.7 125.37 102.4 121.27 94.9004 116.07C87.4315 111.018 81.0131 104.566 76.0004 97.0701C71.0004 89.5701 67.0004 80.3701 66.5004 68.6701C66.0004 56.4701 69.7004 46.4701 74.3004 38.6701C79.1004 30.4701 85.0004 24.2701 92.3004 18.7701C103.2 10.6701 116 4.67014 132.1 1.67014C137.5 0.770142 143.1 0.270143 149.4 0.0701433ZM133.3 10.3701C119.3 12.9701 107.5 17.9701 98.0004 24.9701C91.6004 29.6701 86.2004 35.0701 81.9004 42.1701C77.8004 48.8701 74.5004 57.9701 75.0004 68.4701C75.5004 78.6701 79.2004 86.5701 83.7004 93.0701C88.3004 99.6701 94.1004 105.07 100.7 109.47C107.4 113.87 114.9 117.47 123.5 119.87C133.068 122.704 143.027 123.987 153 123.67C174 122.97 190.6 117.07 203.5 107.57C209.8 102.87 215.3 97.3701 219.6 90.3701C223.8 83.4701 226.9 75.1701 226.5 64.0701C226.2 54.1701 222.3 45.8701 217.8 39.4701C213.1 32.6701 207.6 27.6701 200.8 23.0701C190.8 16.3701 178.8 11.6701 164.2 9.67014C159.4 9.07014 153.8 8.57014 148.4 8.77014C142.9 9.17014 138 9.47014 133.3 10.3701Z" fill="#808080"/>
<path d="M176 18.4702C181.7 19.0702 186.3 24.1702 185.1 30.7702C184.5 30.3702 181.8 27.3702 178.2 29.4702C176.2 30.6702 174.4 32.9702 173.6 36.0702C173 38.1702 172.6 40.8702 172.6 43.4702C172.6 45.5702 172.7 47.2702 174.5 47.7702C175.1 47.8702 175.6 47.8702 176 47.6702C176.7 47.4702 177.6 46.6702 177.6 46.6702C177.6 46.6702 177.7 51.3702 177.6 53.3702C177.4 56.2702 174.8 59.5702 171.7 58.1702C170.5 57.6702 169.5 56.3702 169 54.9702C168.5 53.5702 168.6 51.4702 168.6 49.4702C168.6 45.8702 168.7 41.1702 168.7 37.7702C168.7 34.0702 168 30.5702 166.4 28.2702C165.59 27.0369 164.514 26.0012 163.251 25.2397C161.987 24.4781 160.569 24.0101 159.1 23.8702C156.5 23.6702 154.6 24.2702 152.9 25.1702C151.4 25.9702 149.8 27.3702 149 29.0702C148 31.3702 148.2 35.4702 148.2 38.9702C148.2 38.9702 148 48.5702 148.5 50.0702C149.6 53.5702 155.3 53.1702 155.8 49.4702C155.9 48.3702 155.9 46.7702 155.9 45.3702V37.6702C156.1 35.2702 155.3 32.5702 157.4 32.5702C159.2 32.6702 158.9 34.6702 158.9 36.6702V59.2702C158.9 59.2702 155.9 56.8702 154.8 56.4702C152.6 55.6702 150.4 56.8702 149.6 58.2702C148.7 59.6702 149 62.8702 149 65.3702V92.2701C149 96.2701 149 99.8702 150 102.37C150.4 103.17 150.9 104.07 151.4 104.77C153 106.97 156 108.17 159 107.47C161.8 106.87 163.5 105.07 164.4 102.17C166.4 106.27 164.5 111.47 162.2 113.97C160.4 115.97 157.5 117.57 154.2 117.67C150.6 117.87 147.8 116.27 145.8 114.47C144.4 113.17 143.1 111.27 142.6 108.97C142.4 108.37 142.1 106.97 142.3 106.47C142.4 106.17 142.9 105.97 143.1 105.87C144 105.17 144.8 103.97 144.5 102.07C144.2 100.37 142.5 99.0702 140.6 99.1702C136.2 99.4702 136.3 105.87 140 106.47C138.9 108.67 136.9 110.47 134.4 111.27C128.2 113.27 123 108.87 121.9 103.87C121.4 101.67 122 99.0702 122.9 97.4702C123.2 96.9702 123.5 96.3702 124 96.1702C123 101.37 129.1 103.17 132.7 101.27C133.8 100.67 134.9 99.6702 135.3 98.5702C136.4 96.0702 136.4 91.0702 136.4 87.4702V74.2702C136.4 65.7702 137.4 57.8702 130.4 56.0702C131.2 55.4702 132.1 55.0702 132.8 54.3702C133.5 53.7702 134.1 53.0702 134.6 52.1702C135.6 50.3702 135.9 48.2702 135.9 45.3702C135.9 45.3702 136.1 31.7702 135.8 29.3702C135.5 26.6702 132.2 24.9702 129.5 26.3702L128.7 26.7702C128.7 26.7702 130.8 20.9702 134.3 18.7702C137 17.0702 140.2 15.4702 144.8 15.8702C142.8 16.8702 140.5 17.9702 139.5 20.0702C139 21.1702 138.8 22.9702 139.4 24.2702C140.6 26.9702 145.8 26.6702 146 23.5702C146.2 20.9702 143.8 20.2702 143.8 20.2702C143.8 20.2702 156.1 11.2702 172.8 19.9702C172.8 19.9702 172.3 20.7702 172.2 21.4702C171.9 23.9702 173.8 25.2702 176 24.5702C178.6 23.6702 178 19.6702 176 18.4702ZM137.1 56.0702L142.3 63.7702L147.5 56.0702L142.3 48.3702L137.1 56.0702Z" fill="#808080"/>
<path d="M103.8 77.2702C102.297 78.0074 101.113 79.266 100.469 80.8114C99.8254 82.3569 99.7654 84.0837 100.3 85.6702C101.3 88.5702 104.4 90.9702 108.7 89.9702C112.3 89.1702 113.8 85.6702 115.1 82.0702C116.3 78.4702 117.1 74.3702 117.3 70.0702C117.5 65.2702 117.2 60.6702 116.3 56.7702C115.9 54.8702 115.2 53.0702 114.6 51.3702C114 49.6702 113.3 47.8702 112.5 46.3702C112.1 45.6702 111.7 44.9702 111 44.3702C106.9 40.7702 99.7004 43.8702 100.4 49.5702C100.5 50.2702 101 51.6702 101 51.6702C101 51.6702 99.8004 50.7702 99.3004 50.1702C98.8004 49.5702 98.2004 48.8702 97.9004 48.2702C96.9004 46.2702 96.7004 43.6702 97.0004 41.5702C97.9004 34.6702 104.9 28.7702 112.8 31.0702C113.8 31.3702 115.6 32.0702 115.6 32.0702C115.6 32.0702 115.4 30.9702 115.3 30.2702C115.2 27.0702 117.9 24.4702 121 24.5702C123.5 24.6702 125.2 26.1702 126 28.2702C124.4 28.8702 123 30.8702 123.8 33.0702C124.6 34.9702 127 36.7702 128.6 38.0702C130.5 39.6702 132.4 41.1702 134.1 42.2702C134.2 45.7702 134.2 48.8702 133 51.0702C132.5 51.8702 131.5 53.3702 130.6 53.4702C129.8 53.4702 126.9 50.8702 126 50.4702C126.2 52.9702 126.9 55.3702 127.2 57.9702C127.8 63.2702 127.9 69.3702 127.3 74.6702C126.3 82.0702 124.1 89.5702 120.2 94.1702C116.2 98.9702 110.5 100.77 109.4 101.07C102.4 103.27 96.5004 99.9702 94.0004 95.2702C92.9667 93.4746 92.4154 91.442 92.4004 89.3702C92.4004 85.7702 94.0004 83.0702 95.7004 80.9702C98.5004 77.7702 103.8 77.1702 103.8 77.2702Z" fill="#808080"/>
<path d="M207.2 87.3703C208.7 91.2703 207.4 95.2703 205.5 97.7703C203.5 100.37 200.3 102.17 196.1 101.87C194 101.77 192.7 100.97 191.1 100.17C190.7 105.27 187.1 109.47 181.6 109.47C174.7 109.47 172.7 102.37 172.7 102.37C172.7 102.37 174.3 103.17 174.6 103.37C179.9 105.27 184.4 99.3703 181.5 94.6703C180.7 93.4703 179.2 92.3703 177.9 91.4703C169 84.5703 159.6 77.3703 151 70.5703V65.5703C151 63.8703 150.8 61.6703 151.2 60.6703C151.6 59.7703 152.5 59.0703 153.7 59.1703C155.1 59.1703 156.3 60.6703 157.4 61.3703C164.8 66.8703 181.2 78.9703 181.2 78.9703C177.8 66.8703 178.8 49.7703 183 39.4703C184.5 35.9703 186.4 32.4703 189.4 30.7703C197.2 26.3703 204.1 29.9703 206.8 33.0703C208.6 35.1703 210.5 38.2703 210 41.8703C209.3 47.0703 207 49.7703 206.3 50.0703C207.7 44.1703 204.1 39.6703 198.3 40.0703C195.6 40.2703 193.8 41.6703 192.7 43.6703C191.2 46.2703 190.4 50.0703 189.7 53.7703C188.312 61.6493 188.38 69.7158 189.9 77.5703C190.9 82.9703 192.2 86.8703 195.4 89.8703C197.5 91.8703 200.6 93.9703 203.7 92.0703C205.9 90.8703 207.2 87.3703 207.2 87.3703Z" fill="#808080"/>
<path d="M142.2 50.8701L145.9 56.0701L142.2 61.2701L138.5 56.0701L142.2 50.8701Z" fill="#808080"/>
<path d="M166.2 95.5702C165.3 97.2702 163.7 98.7702 161.6 98.7702C158.9 98.7702 156.8 96.6702 156.6 93.9702C156.5 91.2702 156.5 88.4702 156.5 85.5702V76.9702L160.5 79.9702C160.5 79.9702 160.4 90.1702 160.7 90.7702C161.4 92.4702 164.5 92.2702 165.6 90.9702C166 90.4702 166.6 88.7702 166.6 88.7702C166.6 88.7702 167.3 93.4702 166.2 95.5702Z" fill="#808080"/>
<path d="M0 170.07H22.7V178.77H10.4V184.87H21.4V193.37H10.3V207.27H0V170.07Z" fill="#808080"/>
<path d="M37 170.07L52.5 191.77V170.07H62.8V207.27H52.8L37.3 185.47V207.27H27V170.07H37Z" fill="#808080"/>
<path d="M86 170.07H96.3V184.17H109.5V170.07H119.8V207.27H109.5V192.17H96.3V207.27H86V170.07Z" fill="#808080"/>
<path d="M126.5 170.07H148.2V178.47H136.6V184.27H147.3V192.67H136.6V198.77H148.2V207.27H126.5V170.07Z" fill="#808080"/>
<path d="M154 170.07H169.4C172.7 170.07 175.7 170.87 177.6 172.37C180.4 174.47 182 177.97 182 181.97C182 187.37 178.8 191.67 174.1 192.37L184.9 207.27H172.4L164 194.47V207.27H154.1V170.07H154ZM167.2 186.97C169.8 186.97 171.5 185.27 171.5 182.77C171.5 180.07 169.9 178.47 167.2 178.47H164.1V186.97H167.2Z" fill="#808080"/>
<path d="M189 194.87C192.1 198.47 194.5 199.97 197.2 199.97C200.3 199.97 202.2 198.47 202.2 196.27C202.2 195.47 202 194.77 201.7 194.37C201.1 193.67 199.3 192.77 197.1 192.17C191.8 190.67 189.8 189.57 188.1 187.27C186.8 185.57 186.2 183.67 186.2 180.97C186.2 173.87 191.7 169.07 199.8 169.07C203.3 169.07 206.2 169.97 210.8 172.57L207.2 180.27C205 178.17 202.5 177.07 200.2 177.07C198 177.07 196.4 178.37 196.4 180.07C196.4 180.87 196.7 181.77 197.5 182.27C197.8 182.57 198.4 182.87 199 183.07L204 184.57C206.6 185.37 209.2 187.07 210.5 188.77C211.7 190.37 212.3 192.47 212.3 195.37C212.3 198.97 211 201.97 208.6 204.27C205.8 206.97 202.3 208.17 197.4 208.17C194.2 208.17 190.9 207.27 188.4 205.57C187.4 204.97 186.6 204.27 184.2 202.17L189 194.87Z" fill="#808080"/>
<path d="M232.7 207.27H222.4V178.87H214.1V170.07H240.8V178.87H232.6V207.27H232.7Z" fill="#808080"/>
<path d="M251.5 170.07H264.2L277.4 207.27H266.4L264.4 200.77H251.2L249.2 207.27H238.4L251.5 170.07ZM262.2 193.27L257.9 179.07L253.6 193.27H262.2Z" fill="#808080"/>
<path d="M280.2 170.07H290.5V198.37H302.9V207.27H280.2V170.07Z" fill="#808080"/>
</g>
<defs>
<clipPath id="clip0_646_1232">
<rect width="302.9" height="208.17" fill="white"/>
</clipPath>
</defs>
</svg>
