<svg width="105" height="26" viewBox="0 0 105 26" fill="none" xmlns="http://www.w3.org/2000/svg">
<path d="M4.11026 0.294922H16.3222L14.4947 5.02103H8.59713L7.72353 10.1438H12.8062L12.0314 14.8498H6.9487L5.26169 24.8577H0L4.11026 0.294922Z" fill="#808080"/>
<path d="M27.0643 0.294922H32.4248L21.3458 24.8577H16.0439L20.6697 14.9301H18.3468L17.1954 0.296464H22.4972L22.9139 9.88759L27.0643 0.294922Z" fill="#808080"/>
<path d="M42.3735 23.4261C40.7853 24.6377 38.8189 25.2535 36.8139 25.1532C32.7639 25.1532 30.7373 23.4261 30.7373 19.9903C30.7373 19.4146 30.7774 18.8389 30.8762 18.2632L33.8937 0.292527H39.2357L36.2568 18.1628C36.2166 18.5394 36.1966 18.7787 36.1966 18.8574C36.0978 19.552 36.5732 20.1879 37.2693 20.2866C37.3881 20.3067 37.507 20.3067 37.6274 20.2866C38.1429 20.3268 38.6599 20.1277 39.0566 19.7711C39.4533 19.3143 39.6925 18.7385 39.7311 18.1428L42.71 0.272461H48.0118L44.9943 18.2431C44.7767 20.2496 43.8429 22.0771 42.3735 23.4261Z" fill="#808080"/>
<path d="M52.2212 18.9598C52.2212 19.9522 52.658 20.4292 53.5516 20.4292C54.0286 20.4492 54.504 20.2903 54.8821 19.9723C55.2201 19.6343 55.4378 19.1975 55.498 18.7221C55.5581 18.4242 55.5767 18.1263 55.5767 17.8084C55.5967 17.1524 55.4177 16.518 55.0612 15.9624C54.5842 15.3064 54.0085 14.7122 53.3541 14.2352L51.7458 12.965C50.0773 11.7333 49.1049 9.76843 49.145 7.70327C49.145 7.22633 49.1852 6.76946 49.2438 6.3126C49.5016 4.50519 50.4354 2.85831 51.8446 1.70534C53.2939 0.573976 55.1013 -0.0218026 56.9473 0.0183276C58.5154 -0.10052 60.0651 0.394933 61.2752 1.38893C62.2475 2.32273 62.7847 3.61307 62.7245 4.96361C62.7245 5.38034 62.6844 5.77701 62.6257 6.19529L62.4081 7.52577L57.1063 9.07387L57.5631 6.45305C57.5832 6.25395 57.6032 6.05638 57.6032 5.85727C57.6032 4.82469 57.1464 4.30917 56.2326 4.30917C55.7557 4.28911 55.2803 4.48822 54.9423 4.82469C54.5842 5.16271 54.3465 5.61958 54.2678 6.11504C54.2277 6.35273 54.2076 6.61203 54.1891 6.84973C54.169 7.36525 54.328 7.88231 54.6259 8.31911C55.1414 8.95502 55.7372 9.5508 56.3731 10.0663L58.2592 11.7935C59.8073 13.0637 60.701 14.9699 60.6809 16.9965C60.6809 17.5321 60.6408 18.0692 60.542 18.5847C60.2843 20.4122 59.4107 22.1193 58.0601 23.3695C56.5907 24.6197 54.6845 25.2556 52.7583 25.1769C51.2287 25.2757 49.7007 24.7602 48.5492 23.7476C47.5367 22.7351 47.0012 21.3645 47.0799 19.9353C47.0799 19.4784 47.12 19.0215 47.1786 18.5647L47.3963 17.2543L52.6981 15.5271L52.2412 18.4458C52.2212 18.6218 52.2212 18.8008 52.2212 18.9598Z" fill="#808080"/>
<path d="M71.4022 0.294922L67.292 24.8577H62.0303L66.1405 0.294922H71.4022Z" fill="#808080"/>
<path d="M75.6129 1.86281C77.161 0.59253 79.1273 -0.0634465 81.1138 0.016814C82.7421 -0.102033 84.3504 0.413487 85.6207 1.426C86.6934 2.45859 87.2691 3.9079 87.1889 5.39735C87.1889 5.93294 87.1488 6.45 87.05 6.96552L85.1839 18.1248C84.7271 22.2752 81.0937 25.3127 76.9433 25.0751C75.335 25.1738 73.7267 24.6784 72.475 23.6659C71.4023 22.6534 70.8266 21.204 70.9068 19.7347C70.9068 19.1991 70.9469 18.6619 71.0457 18.1264L72.9118 6.96706C73.1896 5.00068 74.1435 3.19328 75.6129 1.86281ZM76.2874 18.8008C76.2472 19.2176 76.3861 19.6343 76.664 19.9523C76.9418 20.21 77.3199 20.3489 77.7166 20.3289C78.2522 20.3489 78.7492 20.1498 79.1258 19.7933C79.5626 19.3364 79.8204 18.7607 79.8806 18.1248L81.7667 6.74789C81.8068 6.56885 81.8269 6.3898 81.8454 6.2123C81.8855 5.79557 81.7265 5.3989 81.4487 5.10101C81.1308 4.84325 80.7542 4.70433 80.3374 4.7244C79.8404 4.70433 79.345 4.90344 78.9668 5.23992C78.5701 5.63659 78.2923 6.17372 78.2321 6.72937L76.346 18.1063C76.3275 18.364 76.3074 18.5817 76.2874 18.8008Z" fill="#808080"/>
<path d="M100.114 0.294922H104.999L100.889 24.8577H95.9454L94.1581 15.7435L93.6024 12.4081L91.6762 24.8577H86.7324L90.8427 0.294922H95.4098L97.2373 11.2752L97.7729 14.5118L100.114 0.294922Z" fill="#808080"/>
</svg>
