<?xml version="1.0" encoding="utf-8"?>
<!-- Generator: Adobe Illustrator 24.3.0, SVG Export Plug-In . SVG Version: 6.00 Build 0)  -->
<svg version="1.0" id="katman_1" xmlns="http://www.w3.org/2000/svg" xmlns:xlink="http://www.w3.org/1999/xlink" x="0px" y="0px"
	 viewBox="0 0 841.89 595.28" style="enable-background:new 0 0 841.89 595.28;" xml:space="preserve">
<style type="text/css">
	.st0{fill:#1D1D1B;}
</style>
<path id="Path_2366" class="st0" d="M107.74,217.75h79.12l-11.84,30.62h-38.21l-5.66,33.19h32.93l-5.02,30.49h-32.93l-10.93,64.84
	H81.11L107.74,217.75z"/>
<path id="Path_2367" class="st0" d="M256.46,217.75h34.73l-71.78,159.14h-34.35l29.97-64.32h-15.05l-7.46-94.81h34.35l2.7,62.14
	L256.46,217.75z"/>
<path id="Path_2368" class="st0" d="M355.64,367.62c-10.29,7.85-23.03,11.84-36.02,11.19c-26.24,0-39.37-11.19-39.37-33.45
	c0-3.73,0.26-7.46,0.9-11.19l19.55-116.43h34.61l-19.3,115.78c-0.26,2.44-0.39,3.99-0.39,4.5c-0.64,4.5,2.44,8.62,6.95,9.26
	c0.77,0.13,1.54,0.13,2.32,0c3.34,0.26,6.69-1.03,9.26-3.34c2.57-2.96,4.12-6.69,4.37-10.55l19.3-115.78h34.35l-19.55,116.43
	C371.21,347.04,365.16,358.88,355.64,367.62"/>
<path id="Path_2369" class="st0" d="M419.45,338.68c0,6.43,2.83,9.52,8.62,9.52c3.09,0.13,6.17-0.9,8.62-2.96
	c2.19-2.19,3.6-5.02,3.99-8.1c0.39-1.93,0.51-3.86,0.51-5.92c0.13-4.25-1.03-8.36-3.34-11.96c-3.09-4.25-6.82-8.1-11.06-11.19
	l-10.42-8.23c-10.81-7.98-17.11-20.71-16.85-34.09c0-3.09,0.26-6.05,0.64-9.01c1.67-11.71,7.72-22.38,16.85-29.85
	c9.39-7.33,21.1-11.19,33.06-10.93c10.16-0.77,20.2,2.44,28.04,8.88c6.3,6.05,9.78,14.41,9.39,23.16c0,2.7-0.26,5.27-0.64,7.98
	l-1.41,8.62l-34.35,10.03l2.96-16.98c0.13-1.29,0.26-2.57,0.26-3.86c0-6.69-2.96-10.03-8.88-10.03c-3.09-0.13-6.17,1.16-8.36,3.34
	c-2.32,2.19-3.86,5.15-4.37,8.36c-0.26,1.54-0.39,3.22-0.51,4.76c-0.13,3.34,0.9,6.69,2.83,9.52c3.34,4.12,7.2,7.98,11.32,11.32
	l12.22,11.19c10.03,8.23,15.82,20.58,15.69,33.71c0,3.47-0.26,6.95-0.9,10.29c-1.67,11.84-7.33,22.9-16.08,31
	c-9.52,8.1-21.87,12.22-34.35,11.71c-9.91,0.64-19.81-2.7-27.27-9.26c-6.56-6.56-10.03-15.44-9.52-24.7c0-2.96,0.26-5.92,0.64-8.88
	l1.41-8.49l34.35-11.19l-2.96,18.91C419.45,336.49,419.45,337.65,419.45,338.68"/>
<path id="Path_2370" class="st0" d="M543.72,217.75l-26.63,159.14H483l26.63-159.14L543.72,217.75z"/>
<path id="Path_2371" class="st0" d="M571,227.91c10.03-8.23,22.77-12.48,35.64-11.96c10.55-0.77,20.97,2.57,29.2,9.13
	c6.95,6.69,10.68,16.08,10.16,25.73c0,3.47-0.26,6.82-0.9,10.16l-12.09,72.3c-2.96,26.89-26.5,46.57-53.39,45.03
	c-10.42,0.64-20.84-2.57-28.95-9.13c-6.95-6.56-10.68-15.95-10.16-25.47c0-3.47,0.26-6.95,0.9-10.42l12.09-72.3
	C555.3,248.24,561.48,236.53,571,227.91 M575.37,337.65c-0.26,2.7,0.64,5.4,2.44,7.46c1.8,1.67,4.25,2.57,6.82,2.44
	c3.47,0.13,6.69-1.16,9.13-3.47c2.83-2.96,4.5-6.69,4.89-10.81l12.22-73.71c0.26-1.16,0.39-2.32,0.51-3.47
	c0.26-2.7-0.77-5.27-2.57-7.2c-2.06-1.67-4.5-2.57-7.2-2.44c-3.22-0.13-6.43,1.16-8.88,3.34c-2.57,2.57-4.37,6.05-4.76,9.65
	l-12.22,73.71C575.63,334.82,575.5,336.23,575.37,337.65"/>
<path id="Path_2372" class="st0" d="M729.75,217.75h31.65l-26.63,159.14h-32.03l-11.58-59.05l-3.6-21.61l-12.48,80.66h-32.03
	l26.63-159.14h29.59l11.84,71.14l3.47,20.97L729.75,217.75z"/>
</svg>
