<svg width="158" height="28" viewBox="0 0 158 28" fill="none" xmlns="http://www.w3.org/2000/svg">
<g clip-path="url(#clip0_1359_1367)">
<path d="M30.4894 9.7666H26.4668V27.3855H36.7748V23.5093H30.4894V9.7666Z" fill="#051C2C"/>
<path d="M47.416 15.9855C46.5864 15.0291 45.3546 14.4502 43.6712 14.4502C40.3775 14.4502 37.6621 17.3445 37.6621 21.0948C37.6621 24.8452 40.3767 27.7413 43.6699 27.7413C45.3541 27.7413 46.5864 27.1611 47.4147 26.206V27.3891H51.1858V14.8032H47.4147L47.416 15.9855ZM44.4242 24.1655C42.6891 24.1655 41.4323 22.9823 41.4323 21.0944C41.4323 19.2065 42.6895 18.0238 44.4242 18.0238C46.1588 18.0238 47.416 19.207 47.416 21.0944C47.416 22.9818 46.1588 24.1655 44.4242 24.1655Z" fill="#051C2C"/>
<path d="M67.1476 11.2778L63.3359 12.4105V14.9371H58.6451V11.2773L54.8334 12.4101V14.938H53.0742V18.4603H54.8334V22.8787C54.8334 26.4046 56.2992 27.8872 61.2838 27.3842V23.961C59.5247 24.0614 58.6451 23.961 58.6451 22.8787V18.4603H63.3363V22.8823C63.3363 26.4081 64.8022 27.8908 69.7868 27.3878V23.9646C68.0276 24.065 67.148 23.9646 67.148 22.8823V18.4594H69.7868V14.9371H67.148L67.1476 11.2778Z" fill="#051C2C"/>
<path d="M75.5958 14.8008H71.8242V27.3858H75.5958V14.8008Z" fill="#051C2C"/>
<path d="M73.7117 9.16504C72.4799 9.16504 71.4492 10.1969 71.4492 11.4301C71.4492 12.6632 72.4799 13.6955 73.7117 13.6955C74.9435 13.6955 75.9747 12.6636 75.9747 11.4301C75.9747 10.1965 74.9435 9.16504 73.7117 9.16504Z" fill="#051C2C"/>
<path d="M84.0951 18.1755C85.2016 18.1755 86.1066 18.704 86.5337 19.585L89.8274 17.6721C88.7463 15.7338 86.5836 14.4502 84.1451 14.4502C80.3236 14.4502 77.4824 17.3445 77.4824 21.0948C77.4824 24.8452 80.324 27.7404 84.1455 27.7404C86.6095 27.7404 88.7467 26.4568 89.8278 24.4935L86.5337 22.6078C86.1325 23.4888 85.2012 24.0173 84.0951 24.0173C82.4608 24.0173 81.254 22.8341 81.254 21.0975C81.254 19.3609 82.4608 18.1755 84.0951 18.1755Z" fill="#051C2C"/>
<path d="M97.1403 14.4502C93.1677 14.4502 90.4531 17.3445 90.4531 21.0948C90.4531 24.8452 93.1195 27.7399 97.4167 27.7399C99.8053 27.7399 101.666 26.8589 102.898 25.1473L99.8807 23.4107C99.3778 23.9646 98.4987 24.3672 97.4671 24.3672C96.085 24.3672 94.9259 23.9142 94.4503 22.6056H103.375C103.478 22.1088 103.528 21.6026 103.526 21.0953C103.526 17.2963 100.811 14.4502 97.1403 14.4502ZM94.3762 19.7863C94.7284 18.5027 95.6834 17.798 97.1166 17.798C98.2481 17.798 99.3796 18.3268 99.7817 19.7863H94.3762Z" fill="#051C2C"/>
<path d="M105.795 27.3875H109.818V20.9191H116.354V17.0425H109.818V13.6447H116.48V9.76855H105.795V27.3875Z" fill="#051C2C"/>
<path d="M122.51 9.77148H118.738V27.3873H122.51V9.77148Z" fill="#051C2C"/>
<path d="M131.059 14.4502C127.363 14.4502 124.396 17.3445 124.396 21.0948C124.396 24.8452 127.362 27.7399 131.059 27.7399C134.757 27.7399 137.722 24.8456 137.722 21.0948C137.722 17.3441 134.754 14.4502 131.059 14.4502ZM131.059 24.065C129.425 24.065 128.168 22.8819 128.168 21.0948C128.168 19.3078 129.425 18.1251 131.059 18.1251C132.693 18.1251 133.951 19.3083 133.951 21.0948C133.951 22.8814 132.692 24.065 131.059 24.065V24.065Z" fill="#051C2C"/>
<path d="M153.062 14.8008L151.251 21.5463L149.291 14.8008H145.771L143.81 21.5463L142 14.8008H137.977L142 27.3853H145.519L147.531 20.6648L149.542 27.3853H153.062L157.085 14.8008H153.062Z" fill="#051C2C"/>
<path d="M26.4716 0.960938H17.6758V9.76661H26.4716V0.960938Z" fill="#FF9E16"/>
<path d="M8.87789 9.77037V9.76367L0.0820312 18.5693V27.375H8.87789V18.576H17.6737V9.77037H8.87789Z" fill="#3E8EDE"/>
<path opacity="0.2" d="M8.87789 27.374L0.0820312 18.5684H8.87789V27.374Z" fill="#071C2C"/>
</g>
<defs>
<clipPath id="clip0_1359_1367">
<rect width="157" height="26.7785" fill="white" transform="translate(0.0820312 0.960938)"/>
</clipPath>
</defs>
</svg>
