<svg clip-rule="evenodd" fill-rule="evenodd" stroke-linejoin="round" stroke-miterlimit="2" viewBox="0 0 560 400" xmlns="http://www.w3.org/2000/svg"><g transform="matrix(2.07968 0 0 2.07968 30 168.805)"><path d="m0 18.662h2.594v.845c0 2.113 1.087 3.043 3.932 3.043h6.024c4.267 0 5.605-.17 5.605-2.789v-.085c0-1.69-.502-2.619-3.848-2.619h-8.618c-3.932 0-5.438-1.353-5.438-4.648v-1.015c0-2.788 1.506-4.394 8.534-4.394h4.35c6.359 0 7.279 1.944 7.279 4.394v.93h-2.593v-.254c0-2.618-1.674-2.704-4.769-2.704h-5.104c-4.016 0-4.936.423-4.936 2.366v.677c0 1.436.418 2.281 3.43 2.281h7.446c4.267 0 7.112.423 7.112 5.155v.085c0 4.901-4.351 5.07-7.781 5.07h-5.187c-4.183 0-8.032 0-8.032-5.239z"/><path d="m25 7.246h2.739v2.711h.086c.856-2.053 3.167-2.957 5.735-2.957h5.479c4.109 0 7.961 1.314 7.961 7.146v2.958c0 5.503-2.482 7.31-8.389 7.31h-5.564c-3.082 0-4.452-.739-5.051-2.546h-.085v8.132h-2.911zm19.089 6.9c0-3.285-1.112-4.846-5.136-4.846h-5.735c-3.767 0-5.222 1.971-5.222 4.846v3.204c0 4.025 2.568 4.682 5.564 4.682h5.136c3.339 0 5.393-.738 5.393-4.6z"/><path d="m82 7.258h2.522v2.584h.081c1.057-2.325 3.091-2.842 4.962-2.842h2.602c5.125 0 6.833 1.809 6.833 6.115v2.153h-2.522v-.776c0-4.392-.813-5.081-5.693-5.081h-1.708c-2.929 0-4.311 1.981-4.311 4.306v11.283h-2.766z"/><path d="m105.716 9.565h-3.716v-2.388h3.633v-4.177h2.807v4.177h11.065v2.388h-11.065v8.698c0 3.24 1.074 4.263 4.129 4.263h.908c3.716 0 4.294-.852 4.294-4.519v-1.279h2.229v1.961c0 3.497-.33 6.311-6.358 6.311h-1.486c-5.202 0-6.44-2.644-6.44-5.543z"/><path d="m124 7.258h5.783v3.359h.08c.734-2.841 3.178-3.617 5.947-3.617 4.48 0 6.19 2.068 6.19 6.976 0 .43 0 .947-.081 1.551h-5.295c0-2.24-.489-3.36-2.933-3.36-2.116 0-3.582.861-3.582 3.014v9.819h-6.109z"/><path d="m144 18.408c0-4.733 3.179-4.985 9.286-4.985 3.429 0 5.353.084 6.524 1.436v-1.521c0-1.69-.502-2.282-2.928-2.282h-3.68c-1.841 0-2.343.169-2.425 1.437h-6.191c0-4.733 2.258-5.493 7.528-5.493h7.278c4.35 0 6.608 2.113 6.608 6.253v11.408h-5.939v-1.943c-1.756 1.859-2.426 2.282-5.52 2.282h-4.267c-3.848 0-6.274-.845-6.274-4.901zm11.209 2.282c4.351 0 4.685-.677 4.685-1.859 0-1.268-.334-1.776-3.848-1.776h-2.76c-2.678 0-3.18.593-3.18 2.03 0 1.098.837 1.605 3.346 1.605z"/><path d="m169.168 14.407c0-4.407 1.007-7.373 8.982-7.373h1.846c2.603 0 5.289.763 5.624 3.474h.084v-10.508h6.296v24.746h-5.96v-3.221h-.084c-.671 2.118-2.266 3.475-6.128 3.475h-1.846c-7.975 0-8.982-2.966-8.982-7.373v-3.22zm6.128 2.627c0 1.948.335 3.051 3.357 3.051h3.694c2.518 0 3.777-.593 3.777-3.221v-1.695c0-2.627-1.343-3.22-3.777-3.22h-3.694c-3.022 0-3.357 1.101-3.357 3.051z"/><path d="m196 18.408c0-4.733 3.167-4.985 9.25-4.985 3.417 0 5.333.084 6.5 1.436v-1.521c0-1.69-.5-2.282-2.917-2.282h-3.666c-1.834 0-2.334.169-2.417 1.437h-6.083c0-4.733 2.25-5.493 7.5-5.493h7.25c4.333 0 6.583 2.113 6.583 6.253v11.408h-5.917v-1.943c-1.75 1.859-2.416 2.282-5.5 2.282h-4.25c-3.833 0-6.25-.845-6.25-4.901v-1.691zm11.167 2.282c4.333 0 4.666-.677 4.666-1.859 0-1.268-.333-1.776-3.833-1.776h-2.75c-2.667 0-3.167.593-3.167 2.03 0 1.098.834 1.605 3.334 1.605z"/><path d="m.165.257h5.866v3.343h.082c.744-2.828 3.222-3.6 6.031-3.6 4.543 0 6.278 2.058 6.278 6.943 0 .428 0 .943-.083 1.543h-5.369c0-2.229-.497-3.343-2.975-3.343-2.147 0-3.634.857-3.634 3v9.772h-6.196z" transform="translate(222 7)"/><path d="m66.389 9h-5.778c-3.266 0-5.611.755-5.611 4.781v3.438c0 4.027 2.261 4.781 5.611 4.781h5.778c3.266 0 5.611-.754 5.611-4.781v-3.438c-.084-4.026-2.345-4.781-5.611-4.781" fill="#ec2024"/><path d="m66.113 4h-5.226c-6.913 0-11.887 1.691-11.887 9.048v4.904c0 7.357 5.058 9.048 11.887 9.048h5.226c6.913 0 11.887-1.691 11.887-9.048v-4.904c0-7.357-4.974-9.048-11.887-9.048zm8.768 13.36c0 5.75-3.962 7.019-9.358 7.019h-4.046c-5.396 0-9.358-1.353-9.358-7.019v-3.805c.084-5.75 3.962-7.018 9.358-7.018h4.046c5.396 0 9.358 1.353 9.358 7.018z" fill="#ec2024"/><path d="m0 18.662h2.594v.845c0 2.113 1.087 3.043 3.932 3.043h6.024c4.267 0 5.605-.17 5.605-2.789v-.085c0-1.69-.502-2.619-3.848-2.619h-8.618c-3.932 0-5.438-1.353-5.438-4.648v-1.015c0-2.788 1.506-4.394 8.534-4.394h4.35c6.359 0 7.279 1.944 7.279 4.394v.93h-2.593v-.254c0-2.618-1.674-2.704-4.769-2.704h-5.104c-4.016 0-4.936.423-4.936 2.366v.677c0 1.436.418 2.281 3.43 2.281h7.446c4.267 0 7.112.423 7.112 5.155v.085c0 4.901-4.351 5.07-7.781 5.07h-5.187c-4.183 0-8.032 0-8.032-5.239z"/><path d="m25 7.246h2.739v2.711h.086c.856-2.053 3.167-2.957 5.735-2.957h5.479c4.109 0 7.961 1.314 7.961 7.146v2.958c0 5.503-2.482 7.31-8.389 7.31h-5.564c-3.082 0-4.452-.739-5.051-2.546h-.085v8.132h-2.911zm19.089 6.9c0-3.285-1.112-4.846-5.136-4.846h-5.735c-3.767 0-5.222 1.971-5.222 4.846v3.204c0 4.025 2.568 4.682 5.564 4.682h5.136c3.339 0 5.393-.738 5.393-4.6z"/><path d="m82 7.258h2.522v2.584h.081c1.057-2.325 3.091-2.842 4.962-2.842h2.602c5.125 0 6.833 1.809 6.833 6.115v2.153h-2.522v-.776c0-4.392-.813-5.081-5.693-5.081h-1.708c-2.929 0-4.311 1.981-4.311 4.306v11.283h-2.766z"/><path d="m105.716 9.565h-3.716v-2.388h3.633v-4.177h2.807v4.177h11.065v2.388h-11.065v8.698c0 3.24 1.074 4.263 4.129 4.263h.908c3.716 0 4.294-.852 4.294-4.519v-1.279h2.229v1.961c0 3.497-.33 6.311-6.358 6.311h-1.486c-5.202 0-6.44-2.644-6.44-5.543z"/><path d="m124 7.258h5.783v3.359h.08c.734-2.841 3.178-3.617 5.947-3.617 4.48 0 6.19 2.068 6.19 6.976 0 .43 0 .947-.081 1.551h-5.295c0-2.24-.489-3.36-2.933-3.36-2.116 0-3.582.861-3.582 3.014v9.819h-6.109z"/><path d="m144 18.408c0-4.733 3.179-4.985 9.286-4.985 3.429 0 5.353.084 6.524 1.436v-1.521c0-1.69-.502-2.282-2.928-2.282h-3.68c-1.841 0-2.343.169-2.425 1.437h-6.191c0-4.733 2.258-5.493 7.528-5.493h7.278c4.35 0 6.608 2.113 6.608 6.253v11.408h-5.939v-1.943c-1.756 1.859-2.426 2.282-5.52 2.282h-4.267c-3.848 0-6.274-.845-6.274-4.901zm11.209 2.282c4.351 0 4.685-.677 4.685-1.859 0-1.268-.334-1.776-3.848-1.776h-2.76c-2.678 0-3.18.593-3.18 2.03 0 1.098.837 1.605 3.346 1.605z"/><path d="m169.168 14.407c0-4.407 1.007-7.373 8.982-7.373h1.846c2.603 0 5.289.763 5.624 3.474h.084v-10.508h6.296v24.746h-5.96v-3.221h-.084c-.671 2.118-2.266 3.475-6.128 3.475h-1.846c-7.975 0-8.982-2.966-8.982-7.373v-3.22zm6.128 2.627c0 1.948.335 3.051 3.357 3.051h3.694c2.518 0 3.777-.593 3.777-3.221v-1.695c0-2.627-1.343-3.22-3.777-3.22h-3.694c-3.022 0-3.357 1.101-3.357 3.051z"/><path d="m196 18.408c0-4.733 3.167-4.985 9.25-4.985 3.417 0 5.333.084 6.5 1.436v-1.521c0-1.69-.5-2.282-2.917-2.282h-3.666c-1.834 0-2.334.169-2.417 1.437h-6.083c0-4.733 2.25-5.493 7.5-5.493h7.25c4.333 0 6.583 2.113 6.583 6.253v11.408h-5.917v-1.943c-1.75 1.859-2.416 2.282-5.5 2.282h-4.25c-3.833 0-6.25-.845-6.25-4.901v-1.691zm11.167 2.282c4.333 0 4.666-.677 4.666-1.859 0-1.268-.333-1.776-3.833-1.776h-2.75c-2.667 0-3.167.593-3.167 2.03 0 1.098.834 1.605 3.334 1.605z"/><path d="m.165.257h5.866v3.343h.082c.744-2.828 3.222-3.6 6.031-3.6 4.543 0 6.278 2.058 6.278 6.943 0 .428 0 .943-.083 1.543h-5.369c0-2.229-.497-3.343-2.975-3.343-2.147 0-3.634.857-3.634 3v9.772h-6.196z" transform="translate(222 7)"/><g fill="#ec2024"><path d="m66.389 9h-5.778c-3.266 0-5.611.755-5.611 4.781v3.438c0 4.027 2.261 4.781 5.611 4.781h5.778c3.266 0 5.611-.754 5.611-4.781v-3.438c-.084-4.026-2.345-4.781-5.611-4.781"/><path d="m66.113 4h-5.226c-6.913 0-11.887 1.691-11.887 9.048v4.904c0 7.357 5.058 9.048 11.887 9.048h5.226c6.913 0 11.887-1.691 11.887-9.048v-4.904c0-7.357-4.974-9.048-11.887-9.048zm8.768 13.36c0 5.75-3.962 7.019-9.358 7.019h-4.046c-5.396 0-9.358-1.353-9.358-7.019v-3.805c.084-5.75 3.962-7.018 9.358-7.018h4.046c5.396 0 9.358 1.353 9.358 7.018z"/></g></g></svg>