<svg width="241" height="30" viewBox="0 0 241 30" fill="none" xmlns="http://www.w3.org/2000/svg">
<g clip-path="url(#clip0_649_1395)">
<path fill-rule="evenodd" clip-rule="evenodd" d="M0 18.662H2.594V19.507C2.594 21.62 3.681 22.55 6.526 22.55H12.55C16.817 22.55 18.155 22.38 18.155 19.761V19.676C18.155 17.986 17.653 17.057 14.307 17.057H5.689C1.757 17.057 0.251 15.704 0.251 12.409V11.394C0.251 8.606 1.757 7 8.785 7H13.135C19.494 7 20.414 8.944 20.414 11.394V12.324H17.821V12.07C17.821 9.452 16.147 9.366 13.052 9.366H7.948C3.932 9.366 3.012 9.789 3.012 11.732V12.409C3.012 13.845 3.43 14.69 6.442 14.69H13.888C18.155 14.69 21 15.113 21 19.845V19.93C21 24.831 16.649 25 13.219 25H8.032C3.849 25 0 25 0 19.761V18.662Z" fill="#808080"/>
<path fill-rule="evenodd" clip-rule="evenodd" d="M25 7.246H27.739V9.957H27.825C28.681 7.904 30.992 7 33.56 7H39.039C43.148 7 47 8.314 47 14.146V17.104C47 22.607 44.518 24.414 38.611 24.414H33.047C29.965 24.414 28.595 23.675 27.996 21.868H27.911V30H25V7.246ZM44.089 14.146C44.089 10.861 42.977 9.3 38.953 9.3H33.218C29.451 9.3 27.996 11.271 27.996 14.146V17.35C27.996 21.375 30.564 22.032 33.56 22.032H38.696C42.035 22.032 44.089 21.294 44.089 17.432V14.146Z" fill="#808080"/>
<path fill-rule="evenodd" clip-rule="evenodd" d="M82 7.258H84.522V9.842H84.603C85.66 7.517 87.694 7 89.565 7H92.167C97.292 7 99 8.809 99 13.115V15.268H96.478V14.492C96.478 10.1 95.665 9.411 90.785 9.411H89.077C86.148 9.411 84.766 11.392 84.766 13.717V25H82V7.258Z" fill="#808080"/>
<path fill-rule="evenodd" clip-rule="evenodd" d="M105.716 9.565H102V7.177H105.633V3H108.44V7.177H119.505V9.565H108.44V18.263C108.44 21.503 109.514 22.526 112.569 22.526H113.477C117.193 22.526 117.771 21.674 117.771 18.007V16.728H120V18.689C120 22.186 119.67 25 113.642 25H112.156C106.954 25 105.716 22.356 105.716 19.457V9.565Z" fill="#808080"/>
<path fill-rule="evenodd" clip-rule="evenodd" d="M124 7.258H129.783V10.617H129.863C130.597 7.776 133.041 7 135.81 7C140.29 7 142 9.068 142 13.976C142 14.406 142 14.923 141.919 15.527H136.624C136.624 13.287 136.135 12.167 133.691 12.167C131.575 12.167 130.109 13.028 130.109 15.181V25H124V7.258Z" fill="#808080"/>
<path fill-rule="evenodd" clip-rule="evenodd" d="M144 18.408C144 13.675 147.179 13.423 153.286 13.423C156.715 13.423 158.639 13.507 159.81 14.859V13.338C159.81 11.648 159.308 11.056 156.882 11.056H153.202C151.361 11.056 150.859 11.225 150.777 12.493H144.586C144.586 7.76 146.844 7 152.114 7H159.392C163.742 7 166 9.113 166 13.253V24.661H160.061V22.718C158.305 24.577 157.635 25 154.541 25H150.274C146.426 25 144 24.155 144 20.099V18.408ZM155.209 20.69C159.56 20.69 159.894 20.013 159.894 18.831C159.894 17.563 159.56 17.055 156.046 17.055H153.286C150.608 17.055 150.106 17.648 150.106 19.085C150.106 20.183 150.943 20.69 153.452 20.69H155.209Z" fill="#808080"/>
<path fill-rule="evenodd" clip-rule="evenodd" d="M169.168 14.407C169.168 10 170.175 7.034 178.15 7.034H179.996C182.599 7.034 185.285 7.797 185.62 10.508H185.704V0H192V24.746H186.04V21.525H185.956C185.285 23.643 183.69 25 179.828 25H177.982C170.007 25 169 22.034 169 17.627V14.407H169.168ZM175.296 17.034C175.296 18.982 175.631 20.085 178.653 20.085H182.347C184.865 20.085 186.124 19.492 186.124 16.864V15.169C186.124 12.542 184.781 11.949 182.347 11.949H178.653C175.631 11.949 175.296 13.05 175.296 15V17.034Z" fill="#808080"/>
<path fill-rule="evenodd" clip-rule="evenodd" d="M196 18.408C196 13.675 199.167 13.423 205.25 13.423C208.667 13.423 210.583 13.507 211.75 14.859V13.338C211.75 11.648 211.25 11.056 208.833 11.056H205.167C203.333 11.056 202.833 11.225 202.75 12.493H196.667C196.667 7.76 198.917 7 204.167 7H211.417C215.75 7 218 9.113 218 13.253V24.661H212.083V22.718C210.333 24.577 209.667 25 206.583 25H202.333C198.5 25 196.083 24.155 196.083 20.099V18.408H196ZM207.167 20.69C211.5 20.69 211.833 20.013 211.833 18.831C211.833 17.563 211.5 17.055 208 17.055H205.25C202.583 17.055 202.083 17.648 202.083 19.085C202.083 20.183 202.917 20.69 205.417 20.69H207.167Z" fill="#808080"/>
<path fill-rule="evenodd" clip-rule="evenodd" d="M222.165 7.257H228.031V10.6H228.113C228.857 7.772 231.335 7 234.144 7C238.687 7 240.422 9.058 240.422 13.943C240.422 14.371 240.422 14.886 240.339 15.486H234.97C234.97 13.257 234.473 12.143 231.995 12.143C229.848 12.143 228.361 13 228.361 15.143V24.915H222.165V7.257Z" fill="#808080"/>
<path fill-rule="evenodd" clip-rule="evenodd" d="M66.389 9H60.611C57.345 9 55 9.755 55 13.781V17.219C55 21.246 57.261 22 60.611 22H66.389C69.655 22 72 21.246 72 17.219V13.781C71.916 9.755 69.655 9 66.389 9Z" fill="#969696"/>
<path fill-rule="evenodd" clip-rule="evenodd" d="M66.113 4H60.887C53.974 4 49 5.691 49 13.048V17.952C49 25.309 54.058 27 60.887 27H66.113C73.026 27 78 25.309 78 17.952V13.048C78 5.691 73.026 4 66.113 4ZM74.881 17.36C74.881 23.11 70.919 24.379 65.523 24.379H61.477C56.081 24.379 52.119 23.026 52.119 17.36V13.555C52.203 7.805 56.081 6.537 61.477 6.537H65.523C70.919 6.537 74.881 7.89 74.881 13.555V17.36Z" fill="#969696"/>
<path fill-rule="evenodd" clip-rule="evenodd" d="M0 18.662H2.594V19.507C2.594 21.62 3.681 22.55 6.526 22.55H12.55C16.817 22.55 18.155 22.38 18.155 19.761V19.676C18.155 17.986 17.653 17.057 14.307 17.057H5.689C1.757 17.057 0.251 15.704 0.251 12.409V11.394C0.251 8.606 1.757 7 8.785 7H13.135C19.494 7 20.414 8.944 20.414 11.394V12.324H17.821V12.07C17.821 9.452 16.147 9.366 13.052 9.366H7.948C3.932 9.366 3.012 9.789 3.012 11.732V12.409C3.012 13.845 3.43 14.69 6.442 14.69H13.888C18.155 14.69 21 15.113 21 19.845V19.93C21 24.831 16.649 25 13.219 25H8.032C3.849 25 0 25 0 19.761V18.662Z" fill="#808080"/>
<path fill-rule="evenodd" clip-rule="evenodd" d="M25 7.246H27.739V9.957H27.825C28.681 7.904 30.992 7 33.56 7H39.039C43.148 7 47 8.314 47 14.146V17.104C47 22.607 44.518 24.414 38.611 24.414H33.047C29.965 24.414 28.595 23.675 27.996 21.868H27.911V30H25V7.246ZM44.089 14.146C44.089 10.861 42.977 9.3 38.953 9.3H33.218C29.451 9.3 27.996 11.271 27.996 14.146V17.35C27.996 21.375 30.564 22.032 33.56 22.032H38.696C42.035 22.032 44.089 21.294 44.089 17.432V14.146Z" fill="#808080"/>
<path fill-rule="evenodd" clip-rule="evenodd" d="M82 7.258H84.522V9.842H84.603C85.66 7.517 87.694 7 89.565 7H92.167C97.292 7 99 8.809 99 13.115V15.268H96.478V14.492C96.478 10.1 95.665 9.411 90.785 9.411H89.077C86.148 9.411 84.766 11.392 84.766 13.717V25H82V7.258Z" fill="#808080"/>
<path fill-rule="evenodd" clip-rule="evenodd" d="M105.716 9.565H102V7.177H105.633V3H108.44V7.177H119.505V9.565H108.44V18.263C108.44 21.503 109.514 22.526 112.569 22.526H113.477C117.193 22.526 117.771 21.674 117.771 18.007V16.728H120V18.689C120 22.186 119.67 25 113.642 25H112.156C106.954 25 105.716 22.356 105.716 19.457V9.565Z" fill="#808080"/>
<path fill-rule="evenodd" clip-rule="evenodd" d="M124 7.258H129.783V10.617H129.863C130.597 7.776 133.041 7 135.81 7C140.29 7 142 9.068 142 13.976C142 14.406 142 14.923 141.919 15.527H136.624C136.624 13.287 136.135 12.167 133.691 12.167C131.575 12.167 130.109 13.028 130.109 15.181V25H124V7.258Z" fill="#808080"/>
<path fill-rule="evenodd" clip-rule="evenodd" d="M144 18.408C144 13.675 147.179 13.423 153.286 13.423C156.715 13.423 158.639 13.507 159.81 14.859V13.338C159.81 11.648 159.308 11.056 156.882 11.056H153.202C151.361 11.056 150.859 11.225 150.777 12.493H144.586C144.586 7.76 146.844 7 152.114 7H159.392C163.742 7 166 9.113 166 13.253V24.661H160.061V22.718C158.305 24.577 157.635 25 154.541 25H150.274C146.426 25 144 24.155 144 20.099V18.408ZM155.209 20.69C159.56 20.69 159.894 20.013 159.894 18.831C159.894 17.563 159.56 17.055 156.046 17.055H153.286C150.608 17.055 150.106 17.648 150.106 19.085C150.106 20.183 150.943 20.69 153.452 20.69H155.209Z" fill="#808080"/>
<path fill-rule="evenodd" clip-rule="evenodd" d="M169.168 14.407C169.168 10 170.175 7.034 178.15 7.034H179.996C182.599 7.034 185.285 7.797 185.62 10.508H185.704V0H192V24.746H186.04V21.525H185.956C185.285 23.643 183.69 25 179.828 25H177.982C170.007 25 169 22.034 169 17.627V14.407H169.168ZM175.296 17.034C175.296 18.982 175.631 20.085 178.653 20.085H182.347C184.865 20.085 186.124 19.492 186.124 16.864V15.169C186.124 12.542 184.781 11.949 182.347 11.949H178.653C175.631 11.949 175.296 13.05 175.296 15V17.034Z" fill="#808080"/>
<path fill-rule="evenodd" clip-rule="evenodd" d="M196 18.408C196 13.675 199.167 13.423 205.25 13.423C208.667 13.423 210.583 13.507 211.75 14.859V13.338C211.75 11.648 211.25 11.056 208.833 11.056H205.167C203.333 11.056 202.833 11.225 202.75 12.493H196.667C196.667 7.76 198.917 7 204.167 7H211.417C215.75 7 218 9.113 218 13.253V24.661H212.083V22.718C210.333 24.577 209.667 25 206.583 25H202.333C198.5 25 196.083 24.155 196.083 20.099V18.408H196ZM207.167 20.69C211.5 20.69 211.833 20.013 211.833 18.831C211.833 17.563 211.5 17.055 208 17.055H205.25C202.583 17.055 202.083 17.648 202.083 19.085C202.083 20.183 202.917 20.69 205.417 20.69H207.167Z" fill="#808080"/>
<path fill-rule="evenodd" clip-rule="evenodd" d="M222.165 7.257H228.031V10.6H228.113C228.857 7.772 231.335 7 234.144 7C238.687 7 240.422 9.058 240.422 13.943C240.422 14.371 240.422 14.886 240.339 15.486H234.97C234.97 13.257 234.473 12.143 231.995 12.143C229.848 12.143 228.361 13 228.361 15.143V24.915H222.165V7.257Z" fill="#808080"/>
<path fill-rule="evenodd" clip-rule="evenodd" d="M66.389 9H60.611C57.345 9 55 9.755 55 13.781V17.219C55 21.246 57.261 22 60.611 22H66.389C69.655 22 72 21.246 72 17.219V13.781C71.916 9.755 69.655 9 66.389 9Z" fill="#969696"/>
<path fill-rule="evenodd" clip-rule="evenodd" d="M66.113 4H60.887C53.974 4 49 5.691 49 13.048V17.952C49 25.309 54.058 27 60.887 27H66.113C73.026 27 78 25.309 78 17.952V13.048C78 5.691 73.026 4 66.113 4ZM74.881 17.36C74.881 23.11 70.919 24.379 65.523 24.379H61.477C56.081 24.379 52.119 23.026 52.119 17.36V13.555C52.203 7.805 56.081 6.537 61.477 6.537H65.523C70.919 6.537 74.881 7.89 74.881 13.555V17.36Z" fill="#969696"/>
</g>
<defs>
<clipPath id="clip0_649_1395">
<rect width="241" height="30" fill="white"/>
</clipPath>
</defs>
</svg>
