<svg width="200" height="45" viewBox="0 0 200 45" fill="none" xmlns="http://www.w3.org/2000/svg">
<path d="M53.6199 28.7902C52.0525 28.8315 50.5264 28.5015 49.124 27.8003L49.7015 26.1504C51.0214 26.7691 52.5062 27.0991 53.9499 27.1403C56.1772 27.1403 57.2908 26.1504 57.2908 24.6656C57.2908 23.1807 56.7959 22.6032 53.8674 21.5308C50.8151 20.4584 49.7015 19.386 49.7015 16.9524C49.7015 14.5189 51.3513 12.4566 54.9398 12.4566C56.3422 12.4153 57.7858 12.7453 59.0232 13.364L58.5282 15.0139C57.4146 14.5189 56.2184 14.2714 55.0223 14.1889C52.63 14.1889 51.8051 15.1788 51.7226 16.7462C51.7226 18.1486 52.2175 18.891 54.8573 19.7985C58.5282 21.1183 59.3532 22.2733 59.3532 24.3768C59.3532 26.9341 57.4146 28.7902 53.6199 28.7902ZM64.5915 28.7902C62.7766 28.7902 61.9517 27.9653 61.9517 26.1504V19.1798L60.5493 19.0973L60.6318 17.7774L62.0342 17.6949L62.2817 14.1477L63.9315 13.9827V17.6536H67.52L67.4375 19.1385H63.9728V26.0267C63.9728 26.9341 64.3028 27.2641 65.1277 27.2641C65.9114 27.2641 66.6951 27.0579 67.4375 26.6866L67.85 28.0065C66.9013 28.5427 65.7464 28.8315 64.5915 28.7902ZM73.212 28.7902C70.4072 28.7902 68.5512 27.3878 68.5512 23.7169C68.5512 19.716 70.6135 17.4887 73.7895 17.4887C76.1818 17.4887 77.4604 19.221 77.4604 21.5721C77.4604 22.1495 77.4604 22.727 77.3779 23.3044H70.3248C70.3248 26.1092 71.3147 27.2228 73.6245 27.2228C74.8619 27.1816 76.058 26.7691 77.0479 26.0679L77.6254 27.3053C76.5117 28.2953 75.1094 28.7902 73.212 28.7902ZM75.8518 21.7371C75.8518 20.0047 75.1094 18.9323 73.6245 18.9323C71.8921 18.9323 70.7372 19.9222 70.4897 21.9845H75.8105V21.7371H75.8518ZM83.1937 25.7792C83.3174 26.1092 83.3587 26.4804 83.3587 26.8516C83.3587 26.4804 83.4412 26.1092 83.6062 25.7792L86.7409 17.8186H88.5557L84.0599 28.7077H82.41L78.3266 17.8186H80.3064L83.1937 25.7792ZM99.3623 27.1816L99.5273 28.5015C98.9086 28.7077 98.2487 28.8315 97.5475 28.8315C96.2276 28.8315 95.7326 28.3365 95.6501 27.3466C94.2478 28.6665 93.4228 28.914 92.0617 28.914C90.4943 28.914 89.1744 27.924 89.1744 25.9442C89.1744 24.3768 90.0819 23.3044 95.7326 23.0157V20.8709C95.7326 19.6335 95.1552 19.1385 94.0828 19.1385C92.7629 19.1798 91.5255 19.6335 90.4531 20.4584L89.6282 19.221C91.0305 18.1898 92.7216 17.6124 94.454 17.6536C96.4338 17.6536 97.5062 18.7261 97.5062 20.7884V26.6041C97.5062 27.3466 97.6712 27.4291 98.4137 27.4291C98.7436 27.3053 99.0324 27.2228 99.3623 27.1816ZM95.5677 24.1293C92.0617 24.3768 90.9068 24.7893 90.9068 25.7792C90.9068 26.7691 91.4017 27.4291 92.5566 27.4291C93.3816 27.4291 94.454 26.9341 95.6089 25.8617L95.5677 24.1293ZM107.735 28.749V20.8709C107.735 19.9634 107.405 19.1385 106.251 19.1385C105.343 19.1385 103.941 19.7985 102.745 21.0359V28.749H100.847V17.8599L102.415 17.6949C102.621 18.3136 102.703 18.9323 102.662 19.5922C104.147 18.1898 105.549 17.6124 106.828 17.6124C108.89 17.6124 109.55 18.6023 109.55 20.5409V28.6665L107.735 28.749ZM122.048 27.2641L122.213 28.584C121.594 28.7902 120.934 28.914 120.233 28.914C118.913 28.914 118.418 28.419 118.336 27.4291C116.933 28.749 116.108 28.9964 114.747 28.9964C113.18 28.9964 111.86 28.0065 111.86 26.0267C111.86 24.4593 112.767 23.3869 118.418 23.0982V20.9534C118.418 19.716 117.841 19.221 116.768 19.221C115.448 19.2623 114.211 19.716 113.18 20.5409L112.355 19.3035C113.757 18.2723 115.448 17.6949 117.181 17.7361C119.161 17.7361 120.233 18.8085 120.233 20.8709V26.6866C120.233 27.4291 120.398 27.5116 121.141 27.5116C121.429 27.3466 121.718 27.2641 122.048 27.2641ZM118.295 24.2118C114.789 24.4593 113.634 24.8718 113.634 25.8617C113.634 26.8516 114.129 27.5116 115.284 27.5116C116.108 27.5116 117.181 27.0166 118.336 25.9442L118.295 24.2118ZM126.296 28.9964C124.481 28.9964 123.657 28.1715 123.657 26.3567V19.386L122.172 19.3035L122.254 17.9836L123.657 17.9011L123.904 14.3952L125.554 14.2302V17.9011H129.142L129.06 19.386H125.595V26.1917C125.595 27.0991 125.925 27.4291 126.75 27.4291C127.534 27.4291 128.317 27.2228 129.06 26.8516L129.472 28.1715C128.565 28.749 127.451 29.0377 126.296 28.9964ZM135.082 28.9964C131.865 28.9964 130.256 27.2641 130.256 23.5931C130.256 20.0872 132.236 17.6949 135.494 17.6949C138.588 17.6949 140.238 19.3447 140.238 23.0982C140.238 26.6041 138.464 28.9552 135.082 28.9964ZM135.329 19.1385C133.432 19.1385 132.236 20.7059 132.236 23.4694C132.236 26.5629 133.473 27.5528 135.288 27.5528C137.35 27.5528 138.34 25.903 138.34 23.2219C138.299 20.7059 137.474 19.1385 135.329 19.1385ZM152.117 28.9964C147.951 28.9964 145.641 26.6866 145.641 21.2008C145.641 16.045 148.116 12.6628 152.447 12.6628C154.097 12.5803 155.705 12.9515 157.19 13.6527L156.613 15.2201C155.293 14.6014 153.808 14.3127 152.364 14.3127C149.312 14.3127 147.538 16.7875 147.538 20.9534C147.538 25.6967 149.518 27.2641 152.364 27.2641C153.519 27.2641 154.674 26.9754 155.705 26.4392V22.6445H152.199L152.282 21.1596H157.602V27.2641C156.035 28.419 154.097 28.9964 152.117 28.9964ZM166.058 19.5097H165.398C164.243 19.5097 163.913 19.7572 162.305 22.727V29.0377H160.407V18.1074L161.892 17.9424C162.057 18.2723 162.14 19.5922 162.14 20.9121C163.377 18.3548 163.954 17.9424 165.109 17.9424C165.481 17.9424 165.893 17.9836 166.264 18.1074L166.058 19.5097ZM171.626 29.0789C168.409 29.0789 166.8 27.3466 166.8 23.6756C166.8 20.1697 168.78 17.7774 172.039 17.7774C175.132 17.7774 176.782 19.4272 176.782 23.1807C176.782 26.6041 175.009 29.0377 171.626 29.0789ZM171.874 19.1798C169.976 19.1798 168.78 20.7471 168.78 23.5107C168.78 26.6041 170.018 27.5941 171.833 27.5941C173.895 27.5941 174.885 25.9442 174.885 23.2632C174.885 20.7471 174.06 19.1798 171.915 19.0973V19.1798H171.874ZM185.98 29.0377C185.774 28.5015 185.691 27.8828 185.733 27.3053C184.248 28.7077 182.928 29.1202 181.732 29.1202C179.587 29.1202 178.927 27.8828 178.927 26.0267V18.0249L180.824 17.9424V25.903C180.824 26.8929 181.237 27.5528 182.392 27.5528C183.299 27.5528 184.536 27.0579 185.733 25.8205V18.0249L187.63 17.9424V28.914L185.98 29.0377ZM194.724 29.1202C193.982 29.1614 193.198 29.0377 192.497 28.7077V33.5336L190.6 33.6161V17.9836L192.167 17.8186C192.332 18.2723 192.415 18.8085 192.415 19.3035C193.322 18.3136 194.601 17.7774 195.921 17.8186C198.56 17.8186 200.004 19.551 200.004 23.1394C200.004 26.3979 198.272 29.0377 194.683 29.0377V29.1202H194.724ZM195.384 19.3448C194.229 19.3448 193.157 20.0872 192.497 20.7471V27.0579C193.198 27.4291 193.982 27.6353 194.807 27.6353C196.952 27.6353 198.107 26.0679 198.107 23.2219C198.107 20.9534 197.282 19.386 195.384 19.3035V19.3448Z" fill="#868686"/>
<path d="M23.304 25.2839C23.304 28.7899 20.4992 30.9347 16.0858 30.9347C14.1885 30.976 12.2911 30.5635 10.6 29.6973L10.3525 29.5323L11.26 26.975L11.5899 27.14C13.1573 27.8412 14.8484 28.1712 16.5808 28.2124C18.8906 28.2124 20.2517 27.2225 20.2517 25.6552C20.2517 24.1703 19.9217 23.5103 16.3333 22.1904C12.9511 20.953 11.1775 19.7156 11.1775 16.4572C11.1775 13.6524 12.9098 10.7239 17.7357 10.8064C19.798 10.8064 21.4891 11.2189 22.7265 11.9613L22.974 12.1263L22.1491 14.6011L21.8191 14.4361C20.5404 13.8999 19.1381 13.5699 17.7357 13.5287C14.6009 13.5287 14.1885 14.931 14.1885 16.2509C14.1885 17.7358 14.6834 18.4782 17.7357 19.5094C21.9428 21.0355 23.304 22.4792 23.304 25.2839ZM31.1821 21.118L31.0171 23.5103H35.183V27.4287C34.0693 28.0474 32.7907 28.3362 31.512 28.3362C27.8411 28.3362 26.0262 26.0264 26.1087 21.118C26.1087 16.2922 28.0886 13.4874 31.512 13.4874C33.2031 13.4462 34.8942 13.8174 36.4204 14.5598L36.7503 14.7248L37.6578 12.25L37.4103 12.085C35.5129 11.2189 33.9456 10.9714 31.5945 10.9714C26.3562 10.9714 23.0565 14.9723 23.0565 21.448C23.0565 27.9237 25.6963 31.0172 31.1821 31.0172C33.5744 31.0172 35.9667 30.3573 37.9877 29.0374L38.1527 28.9549V21.2418L31.1821 21.118Z" fill="#868686"/>
<path d="M16.0034 3.71219L14.0236 2.06233L11.4663 0C9.15649 1.48488 7.05292 3.29973 5.32056 5.4033L7.05292 8.20807C6.063 9.56921 5.23807 11.0541 4.57812 12.6215H7.13541C7.50663 11.8378 7.9191 11.0541 8.37281 10.3116C10.3526 7.54812 12.9512 5.23831 16.0034 3.71219Z" fill="#868686"/>
<path d="M16.3341 37.8229C15.5504 37.4516 14.7667 36.9979 14.0242 36.5442C11.137 34.6881 8.82718 32.0483 7.30106 28.9961L5.6512 30.9759L3.58887 33.5332C5.07374 35.843 6.88859 37.9466 8.99217 39.679L11.7969 37.9466C13.1581 38.9365 14.6429 39.7614 16.2103 40.4214L16.3341 37.8229Z" fill="#8D8D8D"/>
<path d="M5.85701 24.7067C5.60953 23.3868 5.44454 22.0257 5.44454 20.7058C5.44454 18.6022 5.77452 16.5399 6.43446 14.5601L3.87718 14.8075L0.659944 15.1375C0.247479 16.9524 0 18.7672 0 20.6233C0 21.5307 0.0824937 22.4382 0.164987 23.3456L3.38222 24.088C3.6297 25.7791 4.08341 27.429 4.7846 28.9964L6.59945 27.1815C6.26948 26.3566 6.022 25.5316 5.85701 24.7067Z" fill="#666666"/>
<path d="M30.7694 38.4829C29.9444 38.7304 29.0783 38.9779 28.2121 39.1428C26.8922 39.3903 25.5311 39.5553 24.2112 39.5553C22.1076 39.5553 20.0453 39.2253 18.0654 38.5654L18.3129 41.1227L18.6429 44.3399C20.4577 44.7524 22.2726 44.9999 24.1287 44.9999C25.0361 44.9999 25.9435 44.9174 26.8509 44.8349L27.5934 41.6176C29.2845 41.3702 30.9344 40.9164 32.5017 40.2153L30.7694 38.4829Z" fill="#A3A3A3"/>
<path d="M41.4114 28.625C40.999 29.3674 40.5865 30.1924 40.0916 30.9348C39.3491 32.0485 38.4829 33.0796 37.5343 34.0283C36.0494 35.5132 34.3583 36.7093 32.4609 37.6168L34.4408 39.2666L36.9981 41.3289C38.5654 40.339 40.0091 39.1841 41.3289 37.9055C41.9889 37.2455 42.5663 36.5856 43.1438 35.9256L41.4114 33.1209C42.4014 31.7597 43.2263 30.2749 43.8862 28.7075L41.4114 28.625Z" fill="#868686"/>
</svg>
