<svg width="108" height="40" viewBox="0 0 108 40" fill="none" xmlns="http://www.w3.org/2000/svg">
<path d="M46.0203 8.16189H17.921C15.6423 8.16189 13.7948 6.3335 13.7948 4.07844C13.7948 1.82839 15.6423 0 17.921 0H46.0203C48.299 0 50.1465 1.82839 50.1465 4.07844C50.1465 6.3335 48.299 8.16189 46.0203 8.16189ZM44.6331 24.5095C44.6331 22.2494 42.7856 20.421 40.507 20.421H12.4025C10.1239 20.421 8.28145 22.2494 8.28145 24.5045C8.28145 26.7545 10.1239 28.5829 12.4025 28.5829H40.507C42.7805 28.5829 44.628 26.7596 44.6331 24.5095ZM0 14.2595C0 15.3437 0.431127 16.3878 1.20843 17.152C1.98192 17.9213 3.03184 18.353 4.13122 18.353H32.2306C34.5092 18.353 36.3567 16.5246 36.3567 14.2745C36.3567 12.0195 34.5092 10.1911 32.2306 10.1911H4.13122C3.03691 10.1911 1.98572 10.6177 1.2135 11.382C0.441272 12.1424 0.00507209 13.1765 0 14.2595ZM58.2048 0.225883L56.4524 6.62715H65.1446L59.2306 28.3382H66.7145L72.5943 6.62715H81.2878L82.9959 0.225883H58.2149H58.2048ZM85.1654 0.225883L77.5573 28.3382H100.382L102.047 22.1177H86.5628L87.9589 17.0052H101.789L103.359 11.333H89.4996L90.8614 6.42636H106.296L108 0.234666H85.1756L85.1654 0.225883ZM52.1677 38.8142C52.7916 38.8142 53.3863 38.5632 53.8212 38.1177L53.1923 37.3284C52.9399 37.5781 52.5988 37.7299 52.2413 37.75C51.9991 37.75 51.7657 37.6521 51.6022 37.4702C51.4386 37.2895 51.3651 37.0485 51.3942 36.8088C51.355 36.0634 51.8951 35.4171 52.6432 35.3142C53.0439 35.2992 53.4154 35.52 53.5942 35.8777L54.5453 35.2201C54.1788 34.5927 53.4903 34.23 52.7662 34.2789C52.0637 34.2551 51.3803 34.5149 50.8794 35.0005C50.3798 35.4849 50.097 36.1525 50.1021 36.8477C50.0818 37.3873 50.2999 37.9069 50.6968 38.2796C51.0924 38.6523 51.6326 38.833 52.1728 38.784L52.1677 38.8142ZM56.6451 38.8142C58.0171 38.784 59.1266 37.691 59.1558 36.3282C59.1862 35.7798 58.9732 35.2502 58.5725 34.8675C58.1705 34.4898 57.6253 34.299 57.0711 34.353C55.6991 34.3819 54.5947 35.4799 54.5592 36.8377C54.5401 37.3823 54.7583 37.9119 55.159 38.2846C55.5597 38.6573 56.1049 38.843 56.6552 38.784L56.6451 38.8142ZM56.6997 37.7701C56.4473 37.7839 56.1937 37.6911 56.0111 37.5103C55.8273 37.3334 55.7334 37.0837 55.7487 36.8289C55.7385 36.1124 56.2787 35.505 56.9964 35.4171C57.2538 35.4021 57.5074 35.4949 57.6849 35.6719C57.8688 35.8526 57.9626 36.1036 57.9474 36.3583C57.9474 37.0636 57.4174 37.6622 56.7098 37.75L56.6997 37.7701ZM59.3245 38.7113H60.5633L61.2164 36.2353C61.262 35.7497 61.6779 35.377 62.1674 35.377C62.3221 35.3531 62.4806 35.3971 62.5985 35.5C62.7126 35.6029 62.7773 35.7497 62.7672 35.9066C62.7672 36.0346 62.7469 36.1663 62.7126 36.2943L62.0735 38.6523H63.3124L63.9413 36.3483C64.0199 36.0835 64.0656 35.8087 64.0795 35.5301C64.0846 35.1963 63.9464 34.8775 63.6978 34.6567C63.4556 34.4308 63.1234 34.3191 62.7874 34.353C62.3411 34.3781 61.9201 34.5638 61.6081 34.8826L61.7223 34.353H60.4885L59.3245 38.7113ZM64.3471 38.7113H65.5758L66.2694 36.2353C66.3138 35.7497 66.7247 35.377 67.2204 35.377C67.3739 35.3531 67.5324 35.3971 67.6465 35.5C67.7657 35.6029 67.824 35.7497 67.819 35.9066C67.8149 36.0346 67.7948 36.1663 67.7606 36.2943L67.1266 38.6523H68.349L68.9792 36.3483C69.0578 36.0935 69.1022 35.8338 69.1225 35.569C69.1377 35.2251 69.0033 34.8926 68.7459 34.6567C68.4935 34.422 68.1461 34.3091 67.7999 34.353C67.3485 34.3781 66.9275 34.5638 66.6105 34.8826L66.7449 34.353H65.5061L64.3471 38.7113ZM70.7963 36.9908H73.7736C73.9017 36.6909 73.9765 36.3721 73.9917 36.0496C74.0158 35.5828 73.8332 35.1273 73.4959 34.8035C73.1548 34.481 72.6932 34.3141 72.2228 34.353C70.7963 34.368 69.6525 35.515 69.6474 36.9218C69.617 37.4463 69.8212 37.9608 70.2066 38.3235C70.5934 38.6862 71.1234 38.8631 71.6535 38.8041C72.257 38.8192 72.8467 38.6171 73.3171 38.2407L72.7528 37.4852C72.4802 37.696 72.1493 37.819 71.8018 37.824C71.5545 37.8629 71.2971 37.7939 71.1031 37.627C70.9104 37.4614 70.8013 37.2204 70.8064 36.9707L70.7963 36.9908ZM70.9104 36.2353C71.0638 35.6907 71.5596 35.3142 72.129 35.2942C72.3116 35.2652 72.4954 35.3193 72.6336 35.441C72.7731 35.564 72.8467 35.7397 72.8416 35.9266C72.8568 36.0195 72.8568 36.1124 72.8416 36.2065H70.9396L70.9104 36.2353ZM76.6165 38.8142C77.2353 38.8091 77.8249 38.5594 78.251 38.1177L77.622 37.3284C77.3697 37.5831 77.0324 37.7299 76.671 37.75C76.4288 37.75 76.1955 37.6521 76.0319 37.4702C75.8734 37.2895 75.7948 37.0485 75.8291 36.8088C75.7847 36.0634 76.3287 35.4171 77.0717 35.3142C77.4737 35.3042 77.8452 35.5251 78.0227 35.8777L78.9737 35.2201C78.6124 34.5927 77.9238 34.23 77.196 34.2789C75.7897 34.289 74.6498 35.4171 74.6396 36.8088C74.6104 37.3334 74.8083 37.8479 75.1798 38.2206C75.5514 38.5983 76.0662 38.8041 76.5962 38.784L76.6165 38.8142ZM80.3457 38.8142C80.6539 38.8192 80.9557 38.7551 81.2372 38.6372L81.525 37.5982C81.3272 37.686 81.1142 37.7349 80.8961 37.74C80.8022 37.7789 80.6932 37.7651 80.6184 37.6961C80.5398 37.6321 80.5093 37.5292 80.5347 37.4313C80.5296 37.3674 80.5296 37.3046 80.5347 37.2406L81.0203 35.436H82.0348L82.3226 34.3919H81.3323L81.629 33.2889H80.4003L80.1086 34.353H79.5837L79.2958 35.3971H79.8208L79.2958 37.3824C79.2515 37.5593 79.2223 37.74 79.2223 37.922C79.2464 38.1817 79.3757 38.4214 79.5887 38.5833C79.7967 38.7452 80.0643 38.8092 80.3267 38.7653L80.3457 38.8142ZM82.1793 38.7401H83.3877L84.5569 34.3529H83.318L82.1793 38.7401ZM83.3877 33.9212H84.6798L84.9829 32.8383H83.6895L83.3877 33.9212ZM85.7653 38.72H86.8799L89.7329 34.3918H88.4104L86.6859 37.2154L86.488 34.3918H85.2898L85.7653 38.72ZM89.3715 38.72H90.6041L91.7935 34.3529H90.5698L89.3715 38.72ZM90.6345 33.9463H91.9469L92.2385 32.8671H90.9959L90.6345 33.9463ZM93.343 38.794C93.6511 38.7991 93.958 38.74 94.2395 38.6171L94.5222 37.5831C94.3244 37.6722 94.1063 37.7161 93.8882 37.7211C93.8096 37.7449 93.7196 37.7261 93.6549 37.6759C93.5915 37.627 93.5509 37.5492 93.5509 37.4701C93.5469 37.4074 93.5469 37.3434 93.5509 37.2794L94.0366 35.4711H95.0573L95.3401 34.427H94.3244L94.6161 33.3289H93.3924L93.1655 34.3529H92.6405L92.3527 35.397H92.8979L92.3729 37.3484C92.3234 37.5191 92.293 37.701 92.2879 37.8817C92.3032 38.1465 92.4274 38.3925 92.6354 38.5631C92.8383 38.73 93.1058 38.8041 93.3734 38.7652L93.343 38.794ZM95.874 40C96.6525 39.9711 97.3461 39.5043 97.653 38.794L100.353 34.3529H99.0199L97.3956 37.2693L97.1965 34.3529H95.9386L96.4737 38.6811C96.3748 38.853 96.191 38.9509 95.9982 38.9459C95.8245 38.9358 95.6622 38.8769 95.5227 38.774L94.8646 39.6612C95.1562 39.882 95.5075 40 95.874 40Z" fill="#808080"/>
</svg>
